<?xml version="1.0" encoding="utf-8"?>
<!-- Generator: Adobe Illustrator 16.0.4, SVG Export Plug-In . SVG Version: 6.00 Build 0)  -->
<!DOCTYPE svg PUBLIC "-//W3C//DTD SVG 1.1//EN" "http://www.w3.org/Graphics/SVG/1.1/DTD/svg11.dtd">
<svg version="1.1" id="Layer_1" xmlns="http://www.w3.org/2000/svg" xmlns:xlink="http://www.w3.org/1999/xlink" x="0px" y="0px"
	 width="38px" height="38px" viewBox="0 0 38 38" enable-background="new 0 0 38 38" xml:space="preserve">
<g>
	<g>
		<g>
			<path fill="#FF8065" d="M21.877,21.648c1.309,0,2.373,1.064,2.373,2.372c0,1.309-1.064,2.374-2.373,2.374
				c-1.308,0-2.372-1.065-2.372-2.374C19.505,22.713,20.569,21.648,21.877,21.648 M21.877,19.648c-2.414,0-4.372,1.957-4.372,4.372
				c0,2.414,1.958,4.374,4.372,4.374c2.416,0,4.373-1.96,4.373-4.374C26.25,21.605,24.293,19.648,21.877,19.648L21.877,19.648z"/>
		</g>
	</g>
	<line fill="none" stroke="#FF8065" stroke-width="2" stroke-miterlimit="10" x1="24.809" y1="26.098" x2="28.934" y2="28.875"/>
	<path fill="none" stroke="#FF8065" stroke-width="2" stroke-miterlimit="10" d="M22.479,15.597"/>
	<line fill="none" stroke="#FF8065" stroke-width="2" stroke-miterlimit="10" x1="6.5" y1="12.5" x2="20.5" y2="12.5"/>
	<line fill="none" stroke="#FF8065" stroke-width="2" stroke-miterlimit="10" x1="6.5" y1="16.5" x2="20.5" y2="16.5"/>
	<line fill="none" stroke="#FF8065" stroke-width="2" stroke-miterlimit="10" x1="6.5" y1="20.5" x2="15.5" y2="20.5"/>
</g>
</svg>
