<?xml version="1.0" encoding="utf-8"?>
<!-- Generator: Adobe Illustrator 16.0.4, SVG Export Plug-In . SVG Version: 6.00 Build 0)  -->
<!DOCTYPE svg PUBLIC "-//W3C//DTD SVG 1.1//EN" "http://www.w3.org/Graphics/SVG/1.1/DTD/svg11.dtd">
<svg version="1.1" id="Layer_1" xmlns="http://www.w3.org/2000/svg" xmlns:xlink="http://www.w3.org/1999/xlink" x="0px" y="0px"
	 width="520px" height="160.5px" viewBox="-0.25 0 520 160.5" enable-background="new -0.25 0 520 160.5" xml:space="preserve">
<g>
	<g>
		<g>
			<path fill="#FFFFFF" d="M43.22,32.769h4.528l0.192,1.479c0.333-1.144,2.668-2.001,4.051-2.001c3.194,0,4.528,1.953,4.528,5.435
				v7.53h-5.007V38.49c0-1.336-0.284-2.336-1.62-2.336c-1.237,0-1.906,1.334-1.906,2.287v6.77H43.22V32.769L43.22,32.769z"/>
			<path fill="#FFFFFF" d="M22.342,27.622H14v17.637h5.529v-5.243h2.812c5.243,0,7.294-2.621,7.294-6.389
				C29.636,30.101,27.395,27.622,22.342,27.622z M21.771,35.677H19.53V31.96h2.241c1.239,0,2.764,0.332,2.764,1.905
				C24.534,35.39,23.104,35.677,21.771,35.677z"/>
			<path fill="#FFFFFF" d="M98.515,32.769h4.575l0.144,1.479c0.382-1.144,2.669-2.001,4.052-2.001c3.193,0,4.528,1.953,4.528,5.435
				v7.578h-5.005v-6.77c0-1.336-0.334-2.336-1.621-2.336c-1.191,0-1.859,1.334-1.859,2.287v6.816h-4.813L98.515,32.769
				L98.515,32.769z"/>
			<path fill="#FFFFFF" d="M75.443,40.779c0,0.476,0.239,1.236,0.525,1.477c0.38,0.238,0.81,0.524,1.381,0.524
				c0.906,0,1.573-0.286,1.573-1.145c0.048-2.051-7.531-0.239-7.531-5.196c0-3.433,2.621-4.241,5.434-4.241
				c2.766,0,6.626,0.523,6.484,4.29h-4.195c0-0.334-0.191-0.572-0.383-0.906c-0.285-0.334-0.666-0.478-1.286-0.524
				c-0.857-0.047-1.669,0.095-1.669,0.762c0.049,1.955,7.866,0.619,7.866,5.195c0,3.195-2.241,4.674-6.579,4.674
				c-2.717-0.098-6.149-1.479-6.149-4.909L75.443,40.779L75.443,40.779z"/>
			<path fill="#FFFFFF" d="M126.876,37.585c0-0.286,0-0.668-0.43-1.192c-0.189-0.237-0.619-0.811-1.334-0.811
				c-1.858,0-2.336,1.859-2.336,3.385c0,1.668,0.811,3.146,2.24,3.146c1.287,0,1.954-1.193,1.954-2.146h4.339
				c0.143,2.527-1.62,5.625-6.483,5.625c-3.908,0-6.721-2.717-6.721-6.674c0-4.861,3.623-6.672,6.674-6.672
				c4.195,0,6.53,2.478,6.482,5.339H126.876L126.876,37.585z"/>
			<path fill="#FFFFFF" d="M42.077,43.447v-5.625c0-2.765-0.573-5.53-5.864-5.53c-5.435,0-6.245,2.146-6.245,4.769h4.195
				c0.143-1.524,0.762-1.718,1.766-1.718c0.522,0,1.523-0.047,1.523,0.858c0,2.717-8.15,0.191-8.15,5.674
				c0,3.336,3.051,3.525,4.624,3.574c1.524,0,2.525-0.43,3.479-1.238l0.525,1.048l4.719-0.048v-0.096
				C42.125,44.543,42.077,44.211,42.077,43.447z M35.069,42.73c-0.954,0-1.383-0.428-1.383-1.238
				c0.049-1.238,2.146-1.191,3.813-1.953C37.644,41.016,36.737,42.73,35.069,42.73z"/>
			<path fill="#FFFFFF" d="M70.056,43.447v-5.625c0-2.765-0.524-5.53-5.813-5.53c-5.482,0-6.245,2.146-6.245,4.769h4.147
				c0.19-1.524,0.763-1.718,1.812-1.718c0.523,0,1.573-0.047,1.573,0.858c-0.049,2.717-8.247,0.191-8.247,5.674
				c0,3.336,3.002,3.525,4.624,3.574c1.573,0,2.621-0.43,3.574-1.238l0.478,1.048l4.671-0.048v-0.096
				C70.105,44.543,70.056,44.211,70.056,43.447z M63.097,42.73c-1.048,0-1.43-0.428-1.43-1.238c0-1.238,2.194-1.191,3.91-1.953
				C65.672,41.016,64.718,42.73,63.097,42.73z"/>
			<polygon fill="#FFFFFF" points="117.343,45.259 117.343,32.769 112.719,32.769 112.719,45.259 			"/>
			<polygon fill="#FFFFFF" points="112.719,31.196 117.343,31.196 117.343,27.573 112.719,27.573 			"/>
			<path fill="#FFFFFF" d="M91.078,32.341c-4.194,0-6.721,2.859-6.721,6.675c0,3.812,2.526,6.674,6.721,6.674
				c4.1,0,6.626-2.86,6.626-6.674C97.704,35.2,95.178,32.341,91.078,32.341z M91.078,42.445c-1.717-0.047-2.24-1.954-2.24-3.432
				c0.047-1.525,0.523-3.479,2.24-3.479c1.622,0,2.097,1.953,2.097,3.479C93.175,40.491,92.7,42.445,91.078,42.445z"/>
		</g>
	</g>
	<g>
		<g>
			<g>
				<path fill="#FFFFFF" d="M448.763,87.35c2.842-1.498,4.925-3.51,4.651-4.492c-0.271-0.984-1.493-1.383-2.729-0.889
					c-1.235,0.492-3.318,2.506-4.652,4.492C444.699,88.451,445.922,88.848,448.763,87.35L448.763,87.35z"/>
				<path fill="#FFFFFF" d="M452.386,105.016c1.584,0.713,3.718,0.734,5.24,0.104c1.625-0.618,2.262-1.471,1.207-1.926
					c-1.181-0.471-4.74-0.652-7.295-0.336C449.585,103.245,450.379,104.256,452.386,105.016L452.386,105.016z"/>
				<path fill="#FFFFFF" d="M448.636,115.02c1.778,2.186,4.51,4.262,5.901,4.406c1.066-0.176,0.498-1.938-0.864-3.537
					c-1.227-1.459-3.291-2.764-4.825-3.186C447.28,112.191,447.019,113.029,448.636,115.02L448.636,115.02z"/>
				<path fill="#FFFFFF" d="M440.659,108.378c-0.679-0.026-1.541-0.637-1.641-0.374c-0.25,0.539,0.865,2.137,2.381,1.635
					c0.352-0.117,0.924-0.449,1.066-0.609C443.887,107.812,441.732,108.516,440.659,108.378L440.659,108.378z M442.395,101.32
					c-0.98,0.15-1.674,0.648-2.157,1.248c-0.505,0.625-1.303,1.613-0.811,2.517c0.052,0.108,0.375,0.562,1.072,0.75
					c1.608,0.479,3.483,0.224,4.243-1.272c0.138-0.269,0.332-0.649,0.259-1.084c-0.167-0.99-0.785-1.408-1.015-1.594
					C443.647,101.609,443.083,101.23,442.395,101.32L442.395,101.32z M439.129,94.247c-1.917,0.271-2.86,1.749-2.032,3.95
					c0.059,0.141,0.245,0.105,0.293-0.07c0.059-0.221,0.137-0.422,0.178-0.723c0.072-0.506,0.364-1.041,0.612-1.354
					c0.532-0.859,1.416-1.09,1.987-1.736C440.34,94.041,439.487,94.193,439.129,94.247L439.129,94.247z M437.653,98.818
					c0.631-0.195,0.976-0.299,1.715-0.422c1.506-0.25,5.187,0.232,6.281,0.791c0.484,0.246,0.948,0.519,1.365,0.858
					c0.949,0.778,1.99,1.429,1.66,3.46c-0.344,2.113-1.888,3.277-3.227,4.52c-1.312,1.216-2.661,2.316-4.736,2.854
					c-0.9,0.231-2.899-0.157-3.468-1.05c-0.215-0.336-0.415-0.734-0.596-1.062c-0.135-0.236-0.178-0.512-0.341-0.711
					c-0.141-0.175-0.518-0.346-0.71-0.455c-0.832-0.473-1.699-1.029-2.191-1.918c-0.317-0.572-0.811-2.373-0.479-3.166
					c0.396-0.959,1.067-1.506,1.879-2.119c0.311-0.233,0.861-0.582,1.188-0.787C436.503,99.291,437.06,99.001,437.653,98.818
					L437.653,98.818z"/>
				<path fill="#FFFFFF" d="M423.845,92.35c-3.189,3.15-6.336,8.389-5.392,14.512c0.543,3.66,2.466,6.35,4.112,8.354
					c2.157,2.504,5.591,4.803,8.616,4.268c1.393-0.271,2.471-1.414,2.977-2.35c1.951-3.602-2.028-8.392-2.479-10.011
					c-0.889-2.312-0.773-3.531-0.585-5.795c0.299-3.584,2.769-7.563,3.388-8.577c0.672-1.1,1.311-2,1.809-2.834
					c0.121-0.204,0.431-0.676,0.308-1.168c-0.158-0.617-0.997-0.936-1.705-1.027c-1.205-0.15-2.187,0.033-3.032,0.215
					c-2.236,0.482-3.984,1.332-5.202,2.131C425.771,90.646,424.797,91.409,423.845,92.35L423.845,92.35z"/>
			</g>
			<g>
				<path fill="#FFFFFF" d="M469.362,130.441v-0.006c0-0.477,0.385-0.875,0.873-0.875c0.491,0,0.869,0.395,0.869,0.871v0.004
					c0,0.475-0.385,0.877-0.869,0.877C469.742,131.312,469.362,130.914,469.362,130.441 M471.007,130.436v-0.004
					c0-0.428-0.332-0.777-0.771-0.777c-0.438,0-0.773,0.357-0.773,0.781v0.006c0,0.424,0.33,0.773,0.773,0.773
					C470.669,131.215,471.007,130.861,471.007,130.436 M469.908,129.98h0.392c0.181,0,0.324,0.094,0.324,0.27
					c0,0.146-0.096,0.23-0.213,0.268l0.243,0.34h-0.175l-0.221-0.32h-0.211v0.32h-0.141L469.908,129.98L469.908,129.98z
					 M470.284,130.42c0.127,0,0.195-0.064,0.195-0.16c0-0.105-0.075-0.154-0.195-0.154h-0.235v0.314H470.284z"/>
				<path fill="#FFFFFF" d="M418.244,129.545c-2.652,0-4.73,2.096-4.73,4.766v0.035c0,2.652,2.069,4.73,4.717,4.73
					c2.644,0,4.715-2.094,4.715-4.766v-0.035C422.944,131.623,420.878,129.545,418.244,129.545 M418.244,138.201
					c-2.113,0-3.771-1.701-3.771-3.873v-0.033c0-2.211,1.605-3.877,3.738-3.877c2.125,0,3.788,1.703,3.788,3.877v0.033
					C421.999,136.535,420.386,138.201,418.244,138.201"/>
				<path fill="#FFFFFF" d="M418.244,129.545c-2.652,0-4.73,2.096-4.73,4.766v0.035c0,2.652,2.069,4.73,4.717,4.73
					c2.644,0,4.715-2.094,4.715-4.766v-0.035C422.944,131.623,420.878,129.545,418.244,129.545z M418.244,138.201
					c-2.113,0-3.771-1.701-3.771-3.873v-0.033c0-2.211,1.605-3.877,3.738-3.877c2.125,0,3.788,1.703,3.788,3.877v0.033
					C421.999,136.535,420.386,138.201,418.244,138.201z"/>
				<path fill="#FFFFFF" d="M413.751,138.037l-0.052-0.061h-6.229v-11.631h-0.941v12.521h8.081l-0.344-0.307
					C414.078,138.393,413.904,138.215,413.751,138.037"/>
				<path fill="#FFFFFF" d="M413.751,138.037l-0.052-0.061h-6.229v-11.631h-0.941v12.521h8.081l-0.344-0.307
					C414.078,138.393,413.904,138.215,413.751,138.037z"/>
				<path fill="#FFFFFF" d="M431.848,131.41c-0.84-1.172-2.188-1.865-3.649-1.865c-2.459,0-4.456,1.943-4.456,4.332v0.033
					c0,2.379,1.997,4.316,4.456,4.316c1.498,0,2.815-0.688,3.649-1.887v0.943c0,2.24-1.286,3.527-3.53,3.527
					c-1.288,0-2.486-0.416-3.562-1.234l-0.143-0.109l-0.54,0.738l0.139,0.104c1.244,0.936,2.589,1.393,4.105,1.393
					c1.338,0,2.499-0.426,3.273-1.201c0.772-0.771,1.182-1.859,1.182-3.148v-7.598h-0.925V131.41L431.848,131.41z M428.248,137.334
					c-1.953,0-3.545-1.545-3.545-3.439v-0.035c0-1.92,1.558-3.424,3.545-3.424c2.015,0,3.651,1.543,3.651,3.439v0.035
					C431.899,135.797,430.262,137.334,428.248,137.334"/>
				<path fill="#FFFFFF" d="M431.848,131.41c-0.84-1.172-2.188-1.865-3.649-1.865c-2.459,0-4.456,1.943-4.456,4.332v0.033
					c0,2.379,1.997,4.316,4.456,4.316c1.498,0,2.815-0.688,3.649-1.887v0.943c0,2.24-1.286,3.527-3.53,3.527
					c-1.288,0-2.486-0.416-3.562-1.234l-0.143-0.109l-0.54,0.738l0.139,0.104c1.244,0.936,2.589,1.393,4.105,1.393
					c1.338,0,2.499-0.426,3.273-1.201c0.772-0.771,1.182-1.859,1.182-3.148v-7.598h-0.925V131.41L431.848,131.41z M428.248,137.334
					c-1.953,0-3.545-1.545-3.545-3.439v-0.035c0-1.92,1.558-3.424,3.545-3.424c2.015,0,3.651,1.543,3.651,3.439v0.035
					C431.899,135.797,430.262,137.334,428.248,137.334z"/>
				<rect x="434.978" y="129.754" fill="#FFFFFF" width="0.925" height="9.115"/>
				<rect x="434.978" y="129.754" fill="#FFFFFF" width="0.925" height="9.113"/>
				<rect x="434.824" y="126.346" fill="#FFFFFF" width="1.102" height="1.414"/>
				<rect x="434.825" y="126.346" fill="#FFFFFF" width="1.101" height="1.414"/>
				<path fill="#FFFFFF" d="M446.198,129.543c-2.49,0-4.367,2.035-4.367,4.732v0.035c0,2.76,1.901,4.766,4.525,4.766
					c1.886,0,3.065-1.021,3.721-1.877l0.106-0.139l-0.692-0.547l-0.108,0.141c-0.759,0.982-1.855,1.547-3.011,1.547
					c-1.909,0-3.397-1.471-3.567-3.508h7.589v-0.367C450.393,132.025,449.081,129.543,446.198,129.543 M446.164,130.418
					c2.058,0,3.11,1.705,3.257,3.42h-6.616C442.977,131.852,444.38,130.418,446.164,130.418"/>
				<path fill="#FFFFFF" d="M446.198,129.543c-2.49,0-4.367,2.035-4.367,4.732v0.035c0,2.76,1.901,4.766,4.525,4.766
					c1.886,0,3.065-1.021,3.721-1.877l0.106-0.139l-0.692-0.547l-0.108,0.141c-0.759,0.982-1.855,1.547-3.011,1.547
					c-1.909,0-3.397-1.471-3.567-3.508h7.589v-0.367C450.393,132.025,449.081,129.543,446.198,129.543z M446.164,130.418
					c2.058,0,3.11,1.705,3.257,3.42h-6.616C442.977,131.852,444.38,130.418,446.164,130.418z"/>
				<path fill="#FFFFFF" d="M441.597,138.029l-0.077-0.104l-0.122,0.047c-0.332,0.117-0.639,0.178-0.942,0.178
					c-1.081,0-1.65-0.605-1.65-1.754v-5.785h2.732l0.054-0.07c0.128-0.164,0.272-0.33,0.429-0.486l0.295-0.301h-3.51v-3.406h-0.91
					v10.104c0,1.611,0.938,2.574,2.508,2.574c0.512,0,1.007-0.113,1.472-0.33l0.222-0.102l-0.167-0.18
					C441.808,138.287,441.697,138.16,441.597,138.029"/>
				<path fill="#FFFFFF" d="M441.597,138.029l-0.077-0.104l-0.122,0.047c-0.332,0.117-0.639,0.178-0.942,0.178
					c-1.081,0-1.65-0.605-1.65-1.754v-5.785h2.732l0.054-0.07c0.128-0.164,0.272-0.33,0.429-0.486l0.295-0.301h-3.51v-3.406h-0.91
					v10.104c0,1.611,0.938,2.574,2.508,2.574c0.512,0,1.007-0.113,1.472-0.33l0.222-0.102l-0.167-0.18
					C441.808,138.287,441.697,138.16,441.597,138.029z"/>
				<path fill="#FFFFFF" d="M459.101,136.697c-0.922,1.025-1.881,1.506-3.019,1.506c-2.061,0-3.735-1.746-3.735-3.893v-0.035
					c0-2.162,1.626-3.857,3.703-3.857c1.469,0,2.405,0.822,2.983,1.439l0.123,0.133l0.653-0.648l-0.12-0.125
					c-0.795-0.826-1.847-1.672-3.623-1.672c-2.572,0-4.664,2.129-4.664,4.75v0.031c0,2.621,2.084,4.75,4.646,4.75
					c1.479,0,2.659-0.572,3.715-1.801l0.116-0.131l-0.664-0.58L459.101,136.697z"/>
				<path fill="#FFFFFF" d="M459.101,136.697c-0.922,1.025-1.881,1.506-3.019,1.506c-2.061,0-3.735-1.746-3.735-3.893v-0.035
					c0-2.162,1.626-3.857,3.703-3.857c1.469,0,2.405,0.822,2.983,1.439l0.123,0.133l0.653-0.648l-0.12-0.125
					c-0.795-0.826-1.847-1.672-3.623-1.672c-2.572,0-4.664,2.129-4.664,4.75v0.031c0,2.621,2.084,4.75,4.646,4.75
					c1.479,0,2.659-0.572,3.715-1.801l0.116-0.131l-0.664-0.58L459.101,136.697z"/>
				<path fill="#FFFFFF" d="M465.242,129.543c-1.815,0-2.778,1.076-3.198,1.732v-4.93h-0.908v12.521h0.908v-5.115
					c0-1.869,1.375-3.336,3.129-3.336c1.849,0,2.953,1.209,2.953,3.23v5.221h0.91v-5.307
					C469.036,131.084,467.581,129.543,465.242,129.543"/>
				<path fill="#FFFFFF" d="M465.242,129.543c-1.815,0-2.778,1.076-3.198,1.732v-4.93h-0.908v12.521h0.908v-5.115
					c0-1.869,1.375-3.336,3.129-3.336c1.849,0,2.953,1.209,2.953,3.23v5.221h0.91v-5.307
					C469.036,131.084,467.581,129.543,465.242,129.543z"/>
			</g>
		</g>
	</g>
	<g>
		<path fill="#FFFFFF" d="M182.483,42.699c0,0,24.043,4.199,54.532,4.146c0,0,14.598,0,40.203-1.92c0,0,26.574-2.394,36.634-1.905
			c0,0,10.544,0.146,13.799,1.491c0,0-4.241-2.649-24.189-2.604c0,0-10.381-0.12-34.041,1.738c0,0-17.338,1.553-35.661,1.853
			C233.76,45.497,208.14,45.953,182.483,42.699"/>
		<path fill="#FFFFFF" d="M193.608,29.961c-0.563-0.487-1.283-0.811-2.033-0.811c-0.562,0-1.313,0.341-1.313,1.021
			c0,0.712,0.828,0.986,1.358,1.164l0.783,0.243c1.643,0.503,2.908,1.359,2.908,3.333c0,1.214-0.281,2.46-1.219,3.286
			c-0.923,0.809-2.159,1.147-3.347,1.147c-1.485,0-2.939-0.518-4.144-1.393l1.313-2.557c0.767,0.696,1.674,1.263,2.721,1.263
			c0.72,0,1.485-0.372,1.485-1.229c0-0.891-1.203-1.197-1.86-1.393c-1.925-0.565-3.19-1.083-3.19-3.446
			c0-2.476,1.704-4.095,4.065-4.095c1.188,0,2.644,0.391,3.689,1.004"/>
		<polygon fill="#FFFFFF" points="202.179,36.337 205.854,36.337 205.854,39.021 199.114,39.021 199.114,26.821 202.179,26.821 		
			"/>
		<polyline fill="#FFFFFF" points="212.265,29.507 212.265,31.547 215.72,31.547 215.72,34.232 212.265,34.232 212.265,36.337 
			215.908,36.337 215.908,39.021 209.2,39.021 209.2,26.821 215.908,26.821 215.908,29.507 		"/>
		<polyline fill="#FFFFFF" points="220.145,26.821 223.209,26.821 228.822,34.281 228.854,34.281 228.854,26.821 231.918,26.821 
			231.918,39.021 228.854,39.021 223.24,31.547 223.209,31.547 223.209,39.021 220.145,39.021 		"/>
		<path fill="#FFFFFF" d="M236.267,26.821h4.349c3.282,0,5.987,2.67,5.987,6.1c0,3.431-2.722,6.101-5.987,6.101h-4.349
			 M239.331,36.337h0.689c1.829,0,3.392-1.036,3.392-3.416c0-2.185-1.391-3.414-3.361-3.414h-0.72V36.337z"/>
		<polyline fill="#FFFFFF" points="253.438,29.507 253.438,31.547 256.894,31.547 256.894,34.232 253.438,34.232 253.438,36.337 
			257.081,36.337 257.081,39.021 250.374,39.021 250.374,26.821 257.081,26.821 257.081,29.507 		"/>
		<path fill="#FFFFFF" d="M271.123,39.021h-3.816l-2.893-4.692h-0.03v4.692h-3.065V26.821h4.582c2.329,0,4.095,1.147,4.095,3.754
			c0,1.683-0.906,3.14-2.579,3.446 M264.384,32.29h0.296c1.001,0,2.127-0.194,2.127-1.521s-1.126-1.522-2.127-1.522h-0.296V32.29z"
			/>
		<polygon fill="#FFFFFF" points="278.988,39.021 275.925,39.021 275.925,29.507 273.392,29.507 273.392,26.821 281.522,26.821 
			281.522,29.507 278.988,29.507 		"/>
		<path fill="#FFFFFF" d="M297.426,32.694c0,3.949-2.736,6.732-6.521,6.732c-3.782,0-6.519-2.783-6.519-6.732
			c0-3.688,3.127-6.278,6.519-6.278C294.299,26.416,297.426,29.006,297.426,32.694 M287.575,32.711c0,2.104,1.502,3.641,3.329,3.641
			c1.831,0,3.331-1.537,3.331-3.641c0-1.683-1.5-3.22-3.331-3.22C289.077,29.491,287.575,31.028,287.575,32.711z"/>
		<polyline fill="#FFFFFF" points="301.197,26.821 304.263,26.821 309.874,34.281 309.906,34.281 309.906,26.821 312.973,26.821 
			312.973,39.021 309.906,39.021 304.293,31.547 304.263,31.547 304.263,39.021 301.197,39.021 		"/>
		<polyline fill="#FFFFFF" points="320.385,29.507 320.385,31.547 323.842,31.547 323.842,34.232 320.385,34.232 320.385,36.337 
			324.027,36.337 324.027,39.021 317.319,39.021 317.319,26.821 324.027,26.821 324.027,29.507 		"/>
	</g>
	<g>
		<g>
			<path fill="#FFFFFF" d="M104.442,117.829c-0.633-0.237-1.601-0.476-2.395-0.476c-0.905,0-1.622,0.237-1.622,1.068
				c0,1.957,5.044,0.752,5.044,4.783c0,2.729-2.213,3.775-4.703,3.775c-1.15,0-2.299-0.182-3.341-0.494l0.195-2.391
				c0,0,1.644,0.551,3.022,0.551c0.972,0,1.761-0.297,1.761-1.148c0-2.092-5.039-0.746-5.039-4.764c0-2.508,2.117-3.535,4.447-3.535
				c1.383,0,2.51,0.261,3.162,0.492L104.442,117.829 M95.229,117.829c-0.65-0.237-1.602-0.476-2.389-0.476
				c-0.911,0-1.646,0.237-1.646,1.068c0,1.957,5.063,0.752,5.063,4.783c0,2.729-2.233,3.775-4.704,3.775
				c-1.146,0-2.297-0.182-3.385-0.494l0.22-2.391c0,0,1.661,0.551,3.046,0.551c0.93,0,1.739-0.297,1.739-1.148
				c0-2.092-5.062-0.746-5.062-4.764c0-2.508,2.135-3.535,4.444-3.535c1.384,0,2.536,0.261,3.207,0.492L95.229,117.829z
				 M141.8,115.161c2.196,0,3.483,1.187,3.483,3.772v7.791h-2.928v-7.195c0-1.166-0.34-1.938-1.584-1.938
				c-1.246,0-2.332,1.086-2.332,3.045v6.09h-2.867v-7.195c0-1.092-0.352-1.938-1.6-1.938c-1.31,0-2.314,1.203-2.314,3.16v5.973
				h-2.963v-11.33c1.938-0.235,2.666,0.556,2.746,1.819c0.711-1.265,1.939-2.056,3.537-2.056c2.035,0,2.846,1.127,3.143,2.191
				C138.618,116.227,139.884,115.161,141.8,115.161z M82.201,115.396c-0.628,3.361-2.252,8.66-3.277,11.328H75.84l-2.177-7.551
				h-0.039l-2.176,7.551h-3.062c-0.985-2.629-2.768-8.107-3.276-11.328h2.904l1.915,7.787h0.042l2.291-7.787h2.906l2.233,7.729
				h0.038l1.94-7.729H82.201z M63.362,117.829c-0.627-0.237-1.595-0.476-2.388-0.476c-0.911,0-1.604,0.237-1.604,1.068
				c0,1.957,5.021,0.752,5.021,4.783c0,2.729-2.212,3.775-4.707,3.775c-1.146,0-2.293-0.182-3.34-0.494l0.178-2.391
				c0,0,1.662,0.551,3.047,0.551c0.971,0,1.759-0.297,1.759-1.148c0-2.092-5.038-0.746-5.038-4.764c0-2.508,2.111-3.535,4.447-3.535
				c1.379,0,2.49,0.261,3.16,0.492L63.362,117.829z M121.478,126.959c-3.221,0-5.474-1.754-5.474-5.711
				c0-3.538,2.369-6.088,5.812-6.088c3.202,0,5.277,1.8,5.277,5.65C127.095,124.508,124.841,126.959,121.478,126.959z
				 M121.599,117.652c-1.304,0-2.553,0.965-2.553,3.457c0,2.152,0.812,3.361,2.517,3.361c1.438,0,2.547-1.166,2.547-3.461
				C124.109,118.816,123.319,117.652,121.599,117.652z M83.528,126.725h2.906v-11.328c-1.367-0.14-2.906,0.238-2.906,2.377V126.725z
				 M85.128,113.975c1.028,0,1.858-0.791,1.858-1.799c0-0.99-0.83-1.738-1.858-1.738c-0.944,0-1.793,0.748-1.793,1.738
				C83.335,113.184,84.184,113.975,85.128,113.975z M112.251,126.924c-3.362,0-5.558-1.682-5.558-5.699
				c0-3.396,1.877-6.024,6.012-6.024c0.888,0,2.016,0.18,2.766,0.472l-0.633,2.375c-0.669-0.236-1.324-0.417-2.055-0.417
				c-2.116,0-2.985,1.386-2.985,3.466c0,2.016,0.79,3.355,2.867,3.355c0.969,0,1.642-0.236,2.288-0.496l0.341,2.334
				C114.721,126.641,113.514,126.924,112.251,126.924z"/>
		</g>
		<path fill="#FFFFFF" d="M39.614,115.58c-0.297-0.273-0.608-0.536-0.912-0.79c-0.133-0.11-0.266-0.222-0.396-0.332
			c-0.67-0.573-1.269-1.065-1.821-1.511c-0.645-0.512-1.282-1.027-1.922-1.541c-0.364-0.297-0.729-0.592-1.098-0.883
			c-1.047-0.844-1.887-1.527-2.646-2.16l-0.092-0.077c-0.519-0.431-1.055-0.878-1.562-1.331c-0.254-0.227-0.502-0.453-0.754-0.682
			c-0.086-0.078-0.171-0.158-0.256-0.235l-0.219-0.198c-0.077-0.072-0.157-0.145-0.234-0.217c-0.039-0.037-0.059-0.055-0.065-0.064
			l-0.002-0.098v-4.389c0.567-0.256,1.242-0.387,2.006-0.387c0.623,0,1.298,0.086,2.017,0.254c1.572,0.369,3.069,1.104,4.333,2.129
			c2.293,1.859,3.695,4.609,3.949,7.746C40.056,112.305,39.949,113.902,39.614,115.58z"/>
		<path fill="#FFFFFF" d="M21.665,120.979c0.35,0.234,0.675,0.457,0.972,0.688l0.008,0.004l0.008,0.008
			c0.665,0.443,1.231,1.141,1.514,1.859c0.226,0.566,0.343,1.189,0.455,1.789c0.027,0.146,0.057,0.293,0.086,0.438
			c0.148,0.738,0.328,1.518,0.748,2.199c0.216,0.355,0.486,0.652,0.802,0.891c0.195,0.146,0.645,0.455,1.102,0.555v7.463
			c-0.798-0.537-1.262-1.604-1.582-2.516c-0.309-0.9-0.539-1.842-0.762-2.756c-0.116-0.484-0.238-0.984-0.371-1.477
			c-0.406-1.49-0.908-2.678-1.582-3.73c-0.357-0.584-0.781-1.127-1.188-1.631c-0.267-0.328-0.492-0.59-0.703-0.812l-0.019-0.018
			c-0.102-0.107-0.201-0.219-0.304-0.322c-1.005-1.051-2.118-2.01-3.193-2.939c-0.226-0.195-0.452-0.391-0.681-0.592
			c-1.187-0.99-2.41-2.073-3.256-3.436c-0.83-1.336-1.172-2.916-0.938-4.332c0.21-1.263,0.857-2.529,1.974-3.877
			c2.008-2.379,4.607-4.263,7.12-6.078c0.471-0.34,0.954-0.69,1.43-1.043c0.269,0.584,0.638,1.105,0.997,1.613l0.121,0.174
			l0.307,0.444c0.268,0.39,0.545,0.79,0.811,1.188c0.378,0.565,0.757,1.168,1.128,1.787c0.116,0.192,0.229,0.41,0.358,0.678
			l0.019,0.039c0.104,0.217,0.229,0.473,0.28,0.711c-0.621,0.148-1.097,0.395-1.479,0.763c-0.54,0.517-0.824,1.198-1.07,1.854
			c-0.033,0.088-0.062,0.176-0.097,0.267c-0.228,0.612-0.458,1.246-0.852,1.754c-0.233,0.304-0.572,0.567-1.041,0.804
			c-0.354,0.18-0.723,0.32-1.117,0.467c-0.556,0.211-1.131,0.426-1.649,0.766c-0.971,0.638-1.444,1.793-1.23,3.013
			C19.062,119.205,20.444,120.146,21.665,120.979z"/>
		<g>
			<g>
				<defs>
					<path id="SVGID_1_" d="M25.495,134.443c0.229,0.645,0.496,1.322,0.879,1.9c-2.402-1.178-4.171-2.549-5.375-4.172
						c-0.691-0.936-1.521-2.395-1.519-4.037c0-1.273,0.479-2.553,1.47-3.91c0.824,0.873,1.517,1.781,2.066,2.697
						c0.604,1.014,1.055,2.143,1.422,3.553c0.104,0.4,0.201,0.812,0.295,1.213C24.946,132.6,25.169,133.541,25.495,134.443z
						 M46.144,125.045l-0.002-0.012l-0.012-0.043l-0.024-0.1l-0.028-0.107c-0.604-2.246-1.842-4.197-3.385-5.904
						c-0.787-0.873-1.742-1.699-2.369-2.488v0.006l-0.219-0.084c-0.379-0.344-0.828-0.682-1.215-1.016
						c-0.254-0.216-0.541-0.431-0.796-0.641c-0.198-0.17-0.414-0.336-0.612-0.497c-0.447-0.368-0.906-0.735-1.359-1.101
						c-0.672-0.541-1.349-1.08-2.021-1.617c-1.067-0.855-2.133-1.713-3.183-2.588c-0.139-0.115-0.278-0.231-0.419-0.354
						c-0.306-0.255-0.614-0.516-0.919-0.781c-1.766-1.515-3.485-3.117-4.976-4.896l-0.104-0.127l-0.073-0.088
						c0.062,0.103,0.13,0.201,0.194,0.302l0.025,0.034c0.375,0.545,0.751,1.086,1.118,1.636l0.093,0.142l0.108,0.162
						c0.206,0.305,0.406,0.613,0.601,0.926c0.295,0.482,0.615,0.987,0.828,1.526c0.122,0.269,0.298,0.834,0.293,0.834
						c0.013,0.103,0.092,0.208,0.092,0.312c0,1.279,0,2.561,0,3.84c0,3.953,0,7.906,0,11.861c0,1.658,0,3.32,0,4.98
						c0,0.469,0,0.938,0,1.408c0,2.252,0,4.504,0,6.758c0,1.551,0,3.104,0,4.654c2.509-0.223,5.533-0.922,8.132-1.994
						c3.073-1.27,5.985-3.109,8.034-5.775C45.909,131.656,46.887,128.232,46.144,125.045z M23.764,100.998l0.024,0.05
						c0.063,0.136,0.144,0.285,0.229,0.444c0.183,0.326,0.352,0.619,0.562,0.861l0.02-0.008c0.068,0.135,0.188,0.262,0.312,0.397
						l0.133,0.144c0.4,0.455,0.833,0.928,1.285,1.398c0.189,0.203,0.388,0.4,0.58,0.589l0.119,0.116
						c0.025,0.025,0.013,0.107,0.119,0.213l0.006,0.102v-2.566v-1.666v-0.389v-0.957V96.75c0-0.012-0.068-0.018-0.163-0.018
						c-0.461,0-0.913,0.131-1.25,0.228c-0.671,0.19-1.197,0.478-1.617,0.851c-1.107,0.982-0.684,2.406-0.457,2.973
						C23.696,100.859,23.733,100.93,23.764,100.998z"/>
				</defs>
				<clipPath id="SVGID_2_">
					<use xlink:href="#SVGID_1_"  overflow="visible"/>
				</clipPath>
				<g clip-path="url(#SVGID_2_)">
					<polyline fill="#FFFFFF" points="3.323,93.998 46.595,93.998 46.595,93.37 3.323,93.37 					"/>
					<polyline fill="#FFFFFF" points="3.323,95.252 46.595,95.252 46.595,94.625 3.323,94.625 					"/>
					<polyline fill="#FFFFFF" points="3.323,96.506 46.595,96.506 46.595,95.879 3.323,95.879 					"/>
					<polyline fill="#FFFFFF" points="3.323,97.76 46.595,97.76 46.595,97.133 3.323,97.133 					"/>
					<polyline fill="#FFFFFF" points="3.323,99.014 46.595,99.014 46.595,98.389 3.323,98.389 					"/>
					<polyline fill="#FFFFFF" points="3.323,100.27 46.595,100.27 46.595,99.641 3.323,99.641 					"/>
					<polyline fill="#FFFFFF" points="3.323,101.523 46.595,101.523 46.595,100.896 3.323,100.896 					"/>
					<polyline fill="#FFFFFF" points="3.323,102.777 46.595,102.777 46.595,102.15 3.323,102.15 					"/>
					<polyline fill="#FFFFFF" points="3.323,104.031 46.595,104.031 46.595,103.404 3.323,103.404 					"/>
					<polyline fill="#FFFFFF" points="7.713,105.286 50.985,105.286 50.985,104.659 7.713,104.659 					"/>
					<polyline fill="#FFFFFF" points="7.713,106.541 50.985,106.541 50.985,105.914 7.713,105.914 					"/>
					<polyline fill="#FFFFFF" points="7.713,107.794 50.985,107.794 50.985,107.167 7.713,107.167 					"/>
					<polyline fill="#FFFFFF" points="7.713,109.048 50.985,109.048 50.985,108.422 7.713,108.422 					"/>
					<polyline fill="#FFFFFF" points="7.713,110.303 50.985,110.303 50.985,109.676 7.713,109.676 					"/>
					<polyline fill="#FFFFFF" points="7.713,111.557 50.985,111.557 50.985,110.93 7.713,110.93 					"/>
					<polyline fill="#FFFFFF" points="7.713,112.811 50.985,112.811 50.985,112.184 7.713,112.184 					"/>
					<polyline fill="#FFFFFF" points="7.713,114.066 50.985,114.066 50.985,113.439 7.713,113.439 					"/>
					<polyline fill="#FFFFFF" points="7.713,115.32 50.985,115.32 50.985,114.693 7.713,114.693 					"/>
					<polyline fill="#FFFFFF" points="7.713,116.574 50.985,116.574 50.985,115.947 7.713,115.947 					"/>
					<polyline fill="#FFFFFF" points="7.713,117.829 50.985,117.829 50.985,117.201 7.713,117.201 					"/>
					<polyline fill="#FFFFFF" points="7.713,119.082 50.985,119.082 50.985,118.455 7.713,118.455 					"/>
					<polyline fill="#FFFFFF" points="7.713,120.336 50.985,120.336 50.985,119.709 7.713,119.709 					"/>
					<polyline fill="#FFFFFF" points="7.713,121.59 50.985,121.59 50.985,120.963 7.713,120.963 					"/>
					<polyline fill="#FFFFFF" points="7.713,122.846 50.985,122.846 50.985,122.219 7.713,122.219 					"/>
					<polyline fill="#FFFFFF" points="7.713,124.1 50.985,124.1 50.985,123.473 7.713,123.473 					"/>
					<polyline fill="#FFFFFF" points="7.713,125.354 50.985,125.354 50.985,124.727 7.713,124.727 					"/>
					<polyline fill="#FFFFFF" points="7.713,126.607 50.985,126.607 50.985,125.98 7.713,125.98 					"/>
					<polyline fill="#FFFFFF" points="7.713,127.863 50.985,127.863 50.985,127.234 7.713,127.234 					"/>
					<polyline fill="#FFFFFF" points="7.713,129.117 50.985,129.117 50.985,128.488 7.713,128.488 					"/>
					<polyline fill="#FFFFFF" points="7.713,130.371 50.985,130.371 50.985,129.744 7.713,129.744 					"/>
					<polyline fill="#FFFFFF" points="7.713,131.625 50.985,131.625 50.985,130.998 7.713,130.998 					"/>
					<polyline fill="#FFFFFF" points="7.713,132.879 50.985,132.879 50.985,132.252 7.713,132.252 					"/>
					<polyline fill="#FFFFFF" points="7.713,134.135 50.985,134.135 50.985,133.506 7.713,133.506 					"/>
					<polyline fill="#FFFFFF" points="7.713,135.389 50.985,135.389 50.985,134.762 7.713,134.762 					"/>
					<polyline fill="#FFFFFF" points="7.713,136.643 50.985,136.643 50.985,136.016 7.713,136.016 					"/>
					<polyline fill="#FFFFFF" points="7.713,137.896 50.985,137.896 50.985,137.27 7.713,137.27 					"/>
					<polyline fill="#FFFFFF" points="7.713,139.15 50.985,139.15 50.985,138.523 7.713,138.523 					"/>
					<polyline fill="#FFFFFF" points="7.713,140.404 50.985,140.404 50.985,139.777 7.713,139.777 					"/>
					<polyline fill="#FFFFFF" points="7.713,141.66 50.985,141.66 50.985,141.031 7.713,141.031 					"/>
					<polyline fill="#FFFFFF" points="7.713,142.914 50.985,142.914 50.985,142.287 7.713,142.287 					"/>
					<polyline fill="#FFFFFF" points="7.713,144.168 50.985,144.168 50.985,143.541 7.713,143.541 					"/>
				</g>
			</g>
			<g>
				<defs>
					<path id="SVGID_3_" d="M25.495,134.443c0.229,0.645,0.496,1.322,0.879,1.9c-2.402-1.178-4.171-2.549-5.375-4.172
						c-0.691-0.936-1.521-2.395-1.519-4.037c0-1.273,0.479-2.553,1.47-3.91c0.824,0.873,1.517,1.781,2.066,2.697
						c0.604,1.014,1.055,2.143,1.422,3.553c0.104,0.4,0.201,0.812,0.295,1.213C24.946,132.6,25.169,133.541,25.495,134.443z
						 M46.144,125.045l-0.002-0.012l-0.012-0.043l-0.024-0.1l-0.028-0.107c-0.604-2.246-1.842-4.197-3.385-5.904
						c-0.787-0.873-1.742-1.699-2.369-2.488v0.006l-0.219-0.084c-0.379-0.344-0.828-0.682-1.215-1.016
						c-0.254-0.216-0.541-0.431-0.796-0.641c-0.198-0.17-0.414-0.336-0.612-0.497c-0.447-0.368-0.906-0.735-1.359-1.101
						c-0.672-0.541-1.349-1.08-2.021-1.617c-1.067-0.855-2.133-1.713-3.183-2.588c-0.139-0.115-0.278-0.231-0.419-0.354
						c-0.306-0.255-0.614-0.516-0.919-0.781c-1.766-1.515-3.485-3.117-4.976-4.896l-0.104-0.127l-0.073-0.088
						c0.062,0.103,0.13,0.201,0.194,0.302l0.025,0.034c0.375,0.545,0.751,1.086,1.118,1.636l0.093,0.142l0.108,0.162
						c0.206,0.305,0.406,0.613,0.601,0.926c0.295,0.482,0.615,0.987,0.828,1.526c0.122,0.269,0.298,0.834,0.293,0.834
						c0.013,0.103,0.092,0.208,0.092,0.312c0,1.279,0,2.561,0,3.84c0,3.953,0,7.906,0,11.861c0,1.658,0,3.32,0,4.98
						c0,0.469,0,0.938,0,1.408c0,2.252,0,4.504,0,6.758c0,1.551,0,3.104,0,4.654c2.509-0.223,5.533-0.922,8.132-1.994
						c3.073-1.27,5.985-3.109,8.034-5.775C45.909,131.656,46.887,128.232,46.144,125.045z M23.764,100.998l0.024,0.05
						c0.063,0.136,0.144,0.285,0.229,0.444c0.183,0.326,0.352,0.619,0.562,0.861l0.02-0.008c0.068,0.135,0.188,0.262,0.312,0.397
						l0.133,0.144c0.4,0.455,0.833,0.928,1.285,1.398c0.189,0.203,0.388,0.4,0.58,0.589l0.119,0.116
						c0.025,0.025,0.013,0.107,0.119,0.213l0.006,0.102v-2.566v-1.666v-0.389v-0.957V96.75c0-0.012-0.068-0.018-0.163-0.018
						c-0.461,0-0.913,0.131-1.25,0.228c-0.671,0.19-1.197,0.478-1.617,0.851c-1.107,0.982-0.684,2.406-0.457,2.973
						C23.696,100.859,23.733,100.93,23.764,100.998z"/>
				</defs>
				<clipPath id="SVGID_4_">
					<use xlink:href="#SVGID_3_"  overflow="visible"/>
				</clipPath>
				<g clip-path="url(#SVGID_4_)">
					<path fill="#FFFFFF" d="M52.788,137.074"/>
					<g>
						<path fill="#FF8064" d="M52.788,138.574c1.936,0,1.936-3,0-3C50.854,135.574,50.854,138.574,52.788,138.574L52.788,138.574z"
							/>
					</g>
				</g>
			</g>
		</g>
	</g>
	<g>
		<g>
			<path fill="#FFFFFF" d="M306.64,114.008h-0.56v1.471c0,0.113-0.092,0.205-0.205,0.205c-0.112,0-0.2-0.092-0.2-0.205v-1.471
				h-0.562c-0.104,0-0.189-0.085-0.189-0.188c0-0.106,0.083-0.192,0.189-0.192h1.525c0.102,0,0.19,0.086,0.19,0.192
				C306.831,113.923,306.747,114.008,306.64,114.008z"/>
			<path fill="#FFFFFF" d="M308.983,115.684c-0.102,0-0.188-0.086-0.188-0.188v-0.903c-0.49,0.988-0.49,0.992-0.49,0.992
				c-0.034,0.066-0.089,0.102-0.163,0.102c-0.078,0-0.127-0.033-0.16-0.104l-0.494-0.987v0.899c0,0.104-0.089,0.192-0.192,0.192
				s-0.188-0.09-0.188-0.192v-1.704c0-0.104,0.085-0.188,0.188-0.188c0.08,0,0.145,0.051,0.177,0.119l0.671,1.362l0.666-1.362
				c0.033-0.068,0.098-0.119,0.176-0.119c0.105,0,0.193,0.088,0.193,0.191v1.702C309.177,115.598,309.089,115.684,308.983,115.684z"
				/>
		</g>
		<path fill="#FFFFFF" d="M275.692,116.781c-0.035,1.143-0.969,2.057-2.119,2.057c-0.047,0-0.092-0.002-0.139-0.008
			c0.409,0.689,0.65,1.486,0.65,2.342c0,2.525-2.058,4.582-4.581,4.582c-1.407,0-2.663-0.637-3.505-1.635
			c-0.013-0.016-0.027-0.033-0.039-0.047c-0.076-0.096-0.15-0.193-0.222-0.295c-0.019-0.025-0.037-0.053-0.054-0.078
			c-0.065-0.098-0.126-0.199-0.183-0.301c-0.02-0.033-0.037-0.066-0.055-0.102c-0.055-0.098-0.103-0.199-0.146-0.305
			c-0.018-0.039-0.033-0.08-0.049-0.121c-0.041-0.102-0.08-0.203-0.115-0.309c-0.013-0.045-0.023-0.088-0.036-0.133
			c-0.029-0.107-0.061-0.215-0.083-0.32c-0.007-0.039-0.012-0.078-0.019-0.117c-0.05-0.268-0.078-0.541-0.078-0.82
			c0-2.525,2.056-4.583,4.582-4.583c0.173,0,0.347,0.011,0.514,0.031c0.009,0.001,0.017,0.002,0.025,0.002
			c0.51,0.062,0.992,0.208,1.438,0.423c0-0.003,0-0.006-0.002-0.009c0.38,0.183,0.736,0.413,1.057,0.698
			c0.623,0.551,1.574,0.49,2.125-0.131c0.551-0.625,0.491-1.576-0.132-2.127c-0.599-0.526-1.271-0.945-1.988-1.26
			c-0.054-0.023-0.104-0.047-0.158-0.068c-0.113-0.045-0.228-0.092-0.345-0.131c-0.078-0.029-0.155-0.053-0.235-0.078
			c-0.158-0.049-0.316-0.096-0.479-0.135c-0.113-0.029-0.229-0.059-0.347-0.08c-0.094-0.02-0.189-0.033-0.284-0.05
			c-0.105-0.017-0.213-0.03-0.32-0.044c-0.096-0.011-0.19-0.021-0.289-0.029c-0.121-0.008-0.246-0.014-0.371-0.017
			c-0.069-0.002-0.139-0.009-0.207-0.009c-4.188,0-7.597,3.404-7.597,7.594c0,2.268,1.001,4.396,2.747,5.846
			c0.021,0.02,0.045,0.029,0.066,0.047c1.307,1.062,2.971,1.701,4.781,1.701c4.187,0,7.592-3.404,7.592-7.594
			C277.095,119.537,276.575,118.021,275.692,116.781z"/>
		<path fill="#FFFFFF" d="M222.338,124.09c0.798,0,1.416,0.619,1.416,1.416c0,0.385-0.146,0.738-0.413,1.004
			c-1.474,1.477-3.422,2.213-5.34,2.213c-4.158,0-7.552-3.393-7.552-7.553c0-4.158,3.394-7.552,7.552-7.552
			c1.919,0,3.866,0.737,5.34,2.213c0.268,0.265,0.413,0.647,0.413,1.002c0,0.796-0.618,1.417-1.416,1.417
			c-0.384,0-0.737-0.146-1.003-0.414c-0.854-0.854-2.035-1.386-3.334-1.386c-2.597,0-4.72,2.122-4.72,4.72
			c0,2.596,2.123,4.721,4.72,4.721c1.299,0,2.479-0.531,3.334-1.387C221.601,124.238,221.955,124.09,222.338,124.09z"/>
		<path fill="#FFFFFF" d="M226.2,109.371c0-0.768,0.648-1.416,1.416-1.416c0.767,0,1.416,0.648,1.416,1.416v17.938
			c0,0.766-0.649,1.414-1.416,1.414c-0.768,0-1.416-0.648-1.416-1.414V109.371z"/>
		<path fill="#FFFFFF" d="M233.28,109.371c0.912,0,1.649,0.736,1.649,1.65c0,0.916-0.737,1.653-1.649,1.653
			c-0.916,0-1.652-0.737-1.652-1.653C231.626,110.107,232.364,109.371,233.28,109.371z M231.863,115.034
			c0-0.767,0.649-1.415,1.417-1.415c0.764,0,1.414,0.648,1.414,1.415v12.272c0,0.768-0.65,1.416-1.414,1.416
			c-0.768,0-1.417-0.648-1.417-1.416V115.034z"/>
		<path fill="#FFFFFF" d="M247.421,120.227c0-2.096-1.42-3.775-3.515-3.775c-2.094,0-3.516,1.68-3.516,3.775v7.08
			c0,0.768-0.648,1.416-1.416,1.416s-1.416-0.648-1.416-1.416v-7.08c0-3.658,2.688-6.607,6.348-6.607
			c2.095,0,3.722,0.973,4.933,2.507c1.209-1.534,2.807-2.507,4.932-2.507c3.658,0,6.348,2.949,6.348,6.607v7.08
			c0,0.768-0.647,1.416-1.416,1.416c-0.768,0-1.416-0.648-1.416-1.416v-7.08c0-2.096-1.422-3.775-3.516-3.775
			c-2.095,0-3.518,1.68-3.518,3.775v7.08c0,0.768-0.648,1.416-1.414,1.416c-0.769,0-1.418-0.648-1.418-1.416V120.227z"/>
		<path fill="#FFFFFF" d="M286.085,125.826c0.768,0,1.416,0.65,1.416,1.418s-0.648,1.416-1.416,1.416h-1.415
			c-3.128,0-5.664-2.539-5.664-5.664v-11.801c0-0.768,0.647-1.416,1.415-1.416c0.766,0,1.416,0.648,1.416,1.416v2.359h4.248
			c0.768,0,1.416,0.649,1.416,1.418c0,0.766-0.648,1.416-1.416,1.416h-4.248v6.607c0,1.562,1.269,2.83,2.833,2.83H286.085
			L286.085,125.826z"/>
		<path fill="#FFFFFF" d="M295.738,113.62c-4.159,0-7.55,3.394-7.55,7.55c0,0.244,0.01,0.486,0.037,0.725
			c0.365,3.822,3.599,6.83,7.513,6.83c1.918,0,4.286-0.736,5.761-2.213c0.267-0.268,0.414-0.619,0.414-1.002
			c0-0.799-0.621-1.416-1.418-1.416c-0.384,0-0.736,0.146-1,0.412c-0.856,0.855-2.457,1.387-3.757,1.387
			c-2.102,0-3.896-1.395-4.501-3.305h7.935h2.702c0.771,0,1.418-0.648,1.418-1.418C303.292,117.012,299.898,113.62,295.738,113.62z
			 M291.228,119.756c0.617-1.889,2.387-3.305,4.511-3.305c2.097,0,3.896,1.416,4.485,3.305H291.228z"/>
	</g>
	<g>
		<polygon fill="#FFFFFF" points="416.305,31.625 413.785,38.688 411.209,31.625 408.039,31.625 411.958,41.953 415.452,41.953 
			419.402,31.625 		"/>
		<path fill="#FFFFFF" d="M435.527,36.809c0-1.544,1.289-2.792,2.886-2.792c1.596,0,2.884,1.247,2.884,2.792
			c0,1.537-1.288,2.777-2.884,2.777C436.816,39.586,435.527,38.346,435.527,36.809L435.527,36.809z M441.179,27.424v5.07
			c-0.006,0-0.006-0.009-0.017-0.009c-0.878-0.63-1.952-1.017-3.117-1.017c-2.945,0-5.336,2.367-5.336,5.312
			c0,2.945,2.391,5.33,5.336,5.33c1.184,0,2.256-0.379,3.134-1.002v0.852h2.75V27.424H441.179L441.179,27.424z"/>
		<path fill="#FFFFFF" d="M448.595,36.809c0-1.544,1.287-2.792,2.879-2.792c1.598,0,2.89,1.247,2.89,2.792
			c0,1.537-1.292,2.777-2.89,2.777C449.882,39.586,448.595,38.346,448.595,36.809L448.595,36.809z M454.244,31.638v0.856
			l-0.014-0.009c-0.877-0.63-1.954-1.017-3.115-1.017c-2.952,0-5.348,2.383-5.348,5.312c0,2.945,2.396,5.33,5.348,5.33
			c1.166,0,2.25-0.379,3.129-1.002v0.852h2.746V31.638H454.244L454.244,31.638z"/>
		<path fill="#FFFFFF" d="M464.473,31.638h-1.644c0,0-0.007-0.332-0.007-0.628c0-0.648,0-1.481,1.074-1.481
			c0.278,0,0.554,0.049,0.554,0.049v-2.406c0,0-0.456,0-0.77,0c-2.525,0.098-3.632,0.934-3.632,3.363v1.104h-1.233v2.388h1.233
			v7.928h2.779v-7.928h1.644L464.473,31.638L464.473,31.638z"/>
		<path fill="#FFFFFF" d="M481.094,32.537c0.779-0.682,1.926-1.116,3.144-1.116c2.521,0,3.962,1.561,3.973,3.596v1.163v5.773h-2.834
			v-5.518v-0.509c0-1.523-1.098-1.985-1.958-1.985c-0.8,0-2.323,0.423-2.239,2.283v0.684v5.045h-2.839V31.638h2.755L481.094,32.537
			L481.094,32.537z"/>
		<path fill="#FFFFFF" d="M492.995,37.604c0.14,1.304,1.255,2.238,2.639,2.238c1.079,0,1.798-0.412,2.225-1.162h2.97
			c-0.471,1.611-2.347,3.432-5.105,3.432c-3.314,0-5.655-2.396-5.655-5.338c0-2.94,2.511-5.33,5.655-5.33
			c3.159,0,5.396,2.591,5.396,5.33c0,0.578-0.068,0.83-0.068,0.83H492.995L492.995,37.604z M498.121,35.609
			c-0.238-1.161-1.256-1.839-2.487-1.839c-1.278,0-2.271,0.704-2.568,1.839H498.121L498.121,35.609z"/>
		<path fill="#FFFFFF" d="M427.51,31.782c-1.021,0.225-1.774,1.087-1.774,2.144c0,0.017,0.005,0.044,0.005,0.066
			c1.594,0.327,2.408,1.377,2.408,2.758c0,1.539-1.312,2.793-2.912,2.793c-1.604,0-3.101-1.287-3.101-3.202
			c0-2.348,2.072-4.535,5.031-4.604c0.051,0,0.138,0,0.225,0c-0.646-0.232-1.357-0.361-2.093-0.361
			c-3.188,0-5.753,2.395-5.753,5.374c0,2.966,2.565,5.359,5.753,5.359c3.166,0,5.741-2.395,5.741-5.359
			C431.04,34.515,429.585,32.601,427.51,31.782L427.51,31.782z"/>
		<path fill="#FFFFFF" d="M470.838,31.421c-3.171,0-5.747,2.397-5.747,5.374c0,2.221,1.458,4.143,3.533,4.947
			c1.017-0.219,1.778-1.084,1.778-2.129c0-0.027-0.013-0.051-0.013-0.07c-1.61-0.327-2.418-1.379-2.418-2.748
			c0-1.548,1.319-2.803,2.923-2.803c1.607,0,3.104,1.282,3.104,3.205c0,2.334-2.077,4.525-5.032,4.596c-0.061,0-0.143,0-0.229,0
			c0.65,0.236,1.356,0.365,2.1,0.365c3.168,0,5.751-2.396,5.751-5.363C476.589,33.818,474.006,31.421,470.838,31.421L470.838,31.421
			z"/>
		<path fill="#FFFFFF" d="M392.865,25.411c-2.312,0.479-4.046,2.462-4.046,4.82c0,0.064,0.014,0.111,0.02,0.175
			c3.634,0.737,5.467,3.109,5.467,6.229c0,3.514-2.969,6.354-6.601,6.354c-3.632,0-7.025-2.922-7.025-7.26
			c0-5.302,4.699-10.271,11.404-10.433c0.121,0,0.306,0,0.507,0.007c-1.479-0.543-3.073-0.847-4.763-0.847
			c-7.187,0-13.01,5.457-13.01,12.179c0,6.715,5.823,12.167,13.01,12.167c7.198,0,13.034-5.452,13.034-12.167
			C400.862,31.58,397.556,27.248,392.865,25.411L392.865,25.411z"/>
		<polygon fill="#FFFFFF" points="502.41,31.625 501.982,31.625 501.982,28.545 501.116,28.545 501.116,28.17 503.279,28.17 
			503.279,28.545 502.41,28.545 		"/>
		<polygon fill="#FFFFFF" points="503.607,28.17 504.325,28.17 505.02,30.909 505.028,30.909 505.719,28.17 506.438,28.17 
			506.438,31.625 506.01,31.625 506.01,28.606 505.996,28.606 505.234,31.625 504.808,31.625 504.043,28.606 504.032,28.606 
			504.032,31.625 503.607,31.625 		"/>
	</g>
</g>
</svg>
