<?xml version="1.0" encoding="utf-8"?>
<!-- Generator: Adobe Illustrator 16.0.4, SVG Export Plug-In . SVG Version: 6.00 Build 0)  -->
<!DOCTYPE svg PUBLIC "-//W3C//DTD SVG 1.1//EN" "http://www.w3.org/Graphics/SVG/1.1/DTD/svg11.dtd">
<svg version="1.1" id="Layer_1" xmlns="http://www.w3.org/2000/svg" xmlns:xlink="http://www.w3.org/1999/xlink" x="0px" y="0px"
	 width="122px" height="38px" viewBox="0 0 122 38" enable-background="new 0 0 122 38" xml:space="preserve">
<g>
	<path fill="#FF8063" d="M25.989,10.671H11.894c-0.577,0-1.044,0.469-1.044,1.045v14.096c0,0.576,0.467,1.043,1.044,1.043H25.99
		c0.576,0,1.044-0.467,1.044-1.043V11.716C27.033,11.14,26.565,10.671,25.989,10.671z M23.979,18.763h-1.604v5.827h-2.409v-5.827
		h-1.202v-2.008h1.202v-1.207c0-1.635,0.68-2.609,2.608-2.609h1.607v2.006h-1.003c-0.751,0-0.802,0.281-0.802,0.806l-0.001,1.006
		h1.817L23.979,18.763z"/>
</g>
</svg>
