<?xml version="1.0" encoding="utf-8"?>
<!-- Generator: Adobe Illustrator 16.0.4, SVG Export Plug-In . SVG Version: 6.00 Build 0)  -->
<!DOCTYPE svg PUBLIC "-//W3C//DTD SVG 1.1//EN" "http://www.w3.org/Graphics/SVG/1.1/DTD/svg11.dtd">
<svg version="1.1" id="Layer_1" xmlns="http://www.w3.org/2000/svg" xmlns:xlink="http://www.w3.org/1999/xlink" x="0px" y="0px"
	 width="89px" height="25px" viewBox="0 0 89 25" enable-background="new 0 0 89 25" xml:space="preserve">
<g>
	<path fill="#38434B" d="M88.607,12.073v8.329c0,4.703-4.019,4.123-4.789,4.123V13.598c0-1.014-0.138-1.771-0.409-2.261
		c-0.461-0.862-1.356-1.292-2.701-1.292c-1.097,0-2.004,0.359-2.709,1.084c-0.705,0.721-1.06,1.747-1.06,3.08v10.316h-4.792V6.529
		h4.582v2.635c0.775-1.146,1.607-1.953,2.487-2.416c0.879-0.465,1.897-0.695,3.062-0.695c1.85,0,3.362,0.527,4.553,1.575
		C88.017,8.677,88.607,10.159,88.607,12.073 M66.245,15.525c0-1.487-0.258-2.682-0.787-3.584c-0.729-1.264-1.934-1.895-3.596-1.895
		c-1.643,0-2.83,0.62-3.556,1.859c-0.552,0.949-0.819,2.155-0.819,3.62c0,1.492,0.262,2.688,0.782,3.588
		c0.728,1.264,1.927,1.896,3.593,1.896c1.647,0,2.832-0.625,3.559-1.864C65.969,18.198,66.245,16.994,66.245,15.525 M71.175,15.525
		c0,3.093-0.943,5.483-2.811,7.178C66.68,24.234,64.51,25,61.862,25c-2.646,0-4.822-0.766-6.505-2.296
		c-1.871-1.694-2.804-4.085-2.804-7.177c0-3.091,0.933-5.48,2.804-7.169c1.685-1.535,3.858-2.304,6.505-2.304
		c2.647,0,4.817,0.769,6.502,2.304C70.231,10.046,71.175,12.435,71.175,15.525 M42.832,5.998v0.531h2.978v3.38h-2.978v9.782
		c0,0.586,0.104,0.975,0.311,1.16c0.198,0.196,0.763,0.293,1.678,0.293h0.989v3.521l-2.259,0.064h-0.614
		c-1.94,0-3.276-0.351-4-1.047c-0.6-0.565-0.895-1.513-0.895-2.848V9.91H35.58V6.53h2.462V1.656
		C38.615,1.656,42.832,0.981,42.832,5.998 M31.56,15.525c0-1.487-0.268-2.682-0.792-3.584c-0.728-1.264-1.928-1.895-3.586-1.895
		c-1.65,0-2.837,0.62-3.563,1.859c-0.549,0.949-0.827,2.155-0.827,3.62c0,1.492,0.266,2.688,0.791,3.588
		c0.729,1.264,1.929,1.896,3.6,1.896c1.632,0,2.821-0.625,3.554-1.864C31.28,18.198,31.56,16.994,31.56,15.525 M36.483,15.525
		c0,3.093-0.935,5.483-2.806,7.178C31.986,24.234,29.818,25,27.181,25c-2.652,0-4.82-0.766-6.51-2.296
		c-1.87-1.694-2.804-4.085-2.804-7.177c0-3.091,0.934-5.48,2.804-7.169c1.689-1.535,3.857-2.304,6.51-2.304
		c2.638,0,4.807,0.769,6.498,2.304C35.549,10.046,36.483,12.435,36.483,15.525 M16.854,12.073v12.452h-4.79V13.598
		c0-1.014-0.134-1.771-0.408-2.261c-0.459-0.862-1.362-1.292-2.707-1.292c-1.101,0-1.999,0.359-2.706,1.084
		c-0.711,0.721-1.06,1.747-1.06,3.08v10.316c-0.939,0-4.79,0.408-4.79-4.211V6.529h4.586v2.635c0.775-1.146,1.598-1.953,2.481-2.416
		c0.878-0.465,1.894-0.695,3.059-0.695c1.852,0,3.369,0.527,4.553,1.575C16.262,8.677,16.854,10.159,16.854,12.073"/>
	<path fill="#38434B" d="M51.407,0v4.397c-1.043,0-4.796,0.648-4.796-4.397H51.407z"/>
	<path fill="#38434B" d="M46.611,6.529h4.796v13.581v4.416c-0.841,0-4.796,0.486-4.796-4.289V6.529z"/>
</g>
</svg>
