<?xml version="1.0" encoding="utf-8"?>
<!-- Generator: Adobe Illustrator 16.0.4, SVG Export Plug-In . SVG Version: 6.00 Build 0)  -->
<!DOCTYPE svg PUBLIC "-//W3C//DTD SVG 1.1//EN" "http://www.w3.org/Graphics/SVG/1.1/DTD/svg11.dtd">
<svg version="1.1" id="Layer_1" xmlns="http://www.w3.org/2000/svg" xmlns:xlink="http://www.w3.org/1999/xlink" x="0px" y="0px"
	 width="89px" height="25px" viewBox="0 0 89 25" enable-background="new 0 0 89 25" xml:space="preserve">
<g>
	<path fill="#FFFFFF" d="M83.213,12.124v7.328c0,4.141-3.528,3.631-4.203,3.631v-9.617c0-0.893-0.123-1.56-0.36-1.99
		c-0.403-0.759-1.189-1.137-2.37-1.137c-0.963,0-1.759,0.315-2.377,0.954c-0.62,0.635-0.932,1.537-0.932,2.711v9.079h-4.205V7.245
		h4.022v2.319c0.681-1.009,1.41-1.719,2.183-2.125c0.771-0.41,1.666-0.613,2.686-0.613c1.625,0,2.952,0.464,3.997,1.386
		C82.693,9.136,83.213,10.44,83.213,12.124 M63.585,15.162c0-1.309-0.227-2.36-0.689-3.154c-0.64-1.113-1.697-1.667-3.157-1.667
		c-1.438,0-2.483,0.546-3.12,1.636c-0.484,0.835-0.719,1.896-0.719,3.186c0,1.314,0.229,2.366,0.688,3.157
		c0.638,1.113,1.69,1.67,3.151,1.67c1.447,0,2.487-0.551,3.124-1.642C63.343,17.515,63.585,16.453,63.585,15.162 M67.912,15.162
		c0,2.724-0.828,4.827-2.469,6.317c-1.477,1.348-3.381,2.019-5.705,2.019c-2.323,0-4.232-0.671-5.709-2.018
		c-1.643-1.49-2.458-3.594-2.458-6.317c0-2.721,0.815-4.822,2.458-6.308c1.478-1.351,3.386-2.027,5.709-2.027
		c2.324,0,4.229,0.676,5.705,2.027C67.084,10.34,67.912,12.442,67.912,15.162 M43.036,6.778v0.467h2.614v2.975h-2.614v8.608
		c0,0.518,0.091,0.856,0.273,1.02c0.173,0.174,0.67,0.259,1.473,0.259h0.868v3.101l-1.982,0.055h-0.54
		c-1.703,0-2.875-0.308-3.51-0.92c-0.527-0.498-0.786-1.331-0.786-2.506v-9.615h-2.161V7.247h2.161V2.958
		C39.335,2.958,43.036,2.362,43.036,6.778 M33.143,15.162c0-1.309-0.235-2.36-0.694-3.154c-0.64-1.113-1.694-1.667-3.149-1.667
		c-1.447,0-2.489,0.546-3.126,1.636c-0.482,0.835-0.727,1.896-0.727,3.186c0,1.314,0.234,2.366,0.695,3.157
		c0.64,1.113,1.693,1.67,3.159,1.67c1.433,0,2.477-0.551,3.12-1.642C32.897,17.515,33.143,16.453,33.143,15.162 M37.464,15.162
		c0,2.724-0.821,4.827-2.463,6.317c-1.484,1.348-3.388,2.019-5.702,2.019c-2.328,0-4.231-0.671-5.714-2.018
		c-1.641-1.49-2.461-3.594-2.461-6.317c0-2.721,0.82-4.822,2.461-6.308c1.482-1.351,3.386-2.027,5.714-2.027
		c2.314,0,4.219,0.676,5.703,2.027C36.645,10.34,37.464,12.442,37.464,15.162 M20.235,12.124v10.959h-4.204v-9.617
		c0-0.893-0.117-1.56-0.357-1.99c-0.403-0.759-1.196-1.137-2.376-1.137c-0.966,0-1.755,0.315-2.376,0.954
		c-0.624,0.635-0.93,1.537-0.93,2.711v9.079c-0.823,0-4.204,0.358-4.204-3.707V7.245h4.026v2.319
		c0.679-1.009,1.401-1.719,2.177-2.125c0.771-0.41,1.662-0.613,2.685-0.613c1.625,0,2.958,0.464,3.996,1.386
		C19.716,9.136,20.235,10.44,20.235,12.124"/>
	<path fill="#FFFFFF" d="M50.563,1.499v3.87c-0.917,0-4.21,0.57-4.21-3.87H50.563z"/>
	<path fill="#FFFFFF" d="M46.354,7.245h4.21v11.952v3.886c-0.739,0-4.21,0.427-4.21-3.774V7.245z"/>
</g>
</svg>
