<?xml version="1.0" encoding="utf-8"?>
<!-- Generator: Adobe Illustrator 16.0.4, SVG Export Plug-In . SVG Version: 6.00 Build 0)  -->
<!DOCTYPE svg PUBLIC "-//W3C//DTD SVG 1.1//EN" "http://www.w3.org/Graphics/SVG/1.1/DTD/svg11.dtd">
<svg version="1.1" id="Layer_1" xmlns="http://www.w3.org/2000/svg" xmlns:xlink="http://www.w3.org/1999/xlink" x="0px" y="0px"
	 width="14px" height="9px" viewBox="0 0 14 9" enable-background="new 0 0 14 9" xml:space="preserve">
<g>
	<g>
		<text transform="matrix(1 0 0 1 678.2588 1.9316)" fill="#FF8063" font-family="'ProximaNova-Bold'" font-size="14">FOLLOW US</text>
		<path fill="#FF8063" d="M669.613-7.258c-0.516,0.229-1.07,0.383-1.65,0.451c0.594-0.354,1.046-0.918,1.262-1.588
			c-0.553,0.33-1.17,0.568-1.822,0.697c-0.525-0.558-1.271-0.907-2.098-0.907c-1.855,0-3.219,1.729-2.797,3.528
			c-2.389-0.12-4.504-1.264-5.922-3.003c-0.754,1.29-0.391,2.979,0.888,3.837c-0.47-0.017-0.914-0.146-1.301-0.36
			c-0.031,1.331,0.923,2.575,2.305,2.853c-0.405,0.11-0.847,0.135-1.298,0.048c0.365,1.143,1.426,1.974,2.684,1.996
			c-1.209,0.946-2.728,1.368-4.252,1.189c1.272,0.815,2.782,1.289,4.403,1.289c5.334,0,8.347-4.503,8.166-8.544
			C668.739-6.176,669.228-6.683,669.613-7.258z"/>
		<text transform="matrix(1 0 0 1 829.7588 1.9316)" fill="#FF8063" font-family="'ProximaNova-Bold'" font-size="14">TUMBLR</text>
		<text transform="matrix(1 0 0 1 493.355 2.0137)" fill="#FF8063" font-family="'ProximaNova-Bold'" font-size="14">HELLO@NOTION.IE</text>
		<polygon fill="#FF8063" points="481.112,-7.41 467.112,-7.41 474.111,-2.908 		"/>
		<polygon fill="#FF8063" points="474.759,-1.974 474.111,-1.557 473.463,-1.974 467.112,-6.057 467.112,1.59 481.112,1.59 
			481.112,-6.057 		"/>
		<polyline fill="#FF8063" points="802,-6 818,-6 818,-8 802,-8 		"/>
		<polyline fill="#FF8063" points="802,-2 818,-2 818,-4 802,-4 		"/>
		<polyline fill="#FF8063" points="802,2 812,2 812,0 802,0 		"/>
	</g>
</g>
<rect x="284" y="-2" fill="#FF8063" width="14" height="11"/>
<rect x="287" y="-3" transform="matrix(0.7071 -0.7071 0.7071 0.7071 83.1461 203.7325)" fill="#FFFFFF" width="1" height="9"/>
<rect x="294" y="-2.999" transform="matrix(0.7066 0.7076 -0.7076 0.7066 87.4627 -207.9467)" fill="#FFFFFF" width="1.001" height="8.999"/>
<polygon fill="#FF8063" points="14,0 0.018,0 7.016,4.479 "/>
<polygon fill="#FF8063" points="7.664,5.413 7.016,5.83 6.369,5.413 0.018,1.33 0.018,8.977 14,8.977 14,1.33 "/>
</svg>
