<?xml version="1.0" encoding="utf-8"?>
<!-- Generator: Adobe Illustrator 16.0.4, SVG Export Plug-In . SVG Version: 6.00 Build 0)  -->
<!DOCTYPE svg PUBLIC "-//W3C//DTD SVG 1.1//EN" "http://www.w3.org/Graphics/SVG/1.1/DTD/svg11.dtd">
<svg version="1.1" id="Layer_1" xmlns="http://www.w3.org/2000/svg" xmlns:xlink="http://www.w3.org/1999/xlink" x="0px" y="0px"
	 width="122px" height="38px" viewBox="0 79 122 38" enable-background="new 0 79 122 38" xml:space="preserve">
<g>
	<g>
		<text transform="matrix(1 0 0 1 46.9492 103.2607)" fill="#FF8063" font-family="'ProximaNova-Bold'" font-size="14">TWEET </text>
	</g>
	<g>
		<path fill="#FF8063" d="M40.011,92.809c-0.578,0.256-1.201,0.43-1.852,0.506c0.666-0.396,1.175-1.029,1.416-1.781
			c-0.621,0.371-1.312,0.639-2.045,0.783c-0.59-0.627-1.427-1.018-2.354-1.018c-2.082-0.002-3.611,1.939-3.138,3.957
			c-2.68-0.135-5.053-1.418-6.644-3.369c-0.847,1.447-0.438,3.344,0.996,4.305c-0.527-0.018-1.024-0.162-1.458-0.404
			c-0.036,1.494,1.034,2.891,2.586,3.201c-0.455,0.123-0.951,0.15-1.457,0.053c0.41,1.283,1.6,2.215,3.011,2.24
			c-1.356,1.062-3.061,1.535-4.771,1.334c1.427,0.916,3.12,1.447,4.939,1.447c5.984,0,9.365-5.053,9.161-9.586
			C39.031,94.023,39.579,93.455,40.011,92.809z"/>
	</g>
</g>
</svg>
