<?xml version="1.0" encoding="utf-8"?>
<!-- Generator: Adobe Illustrator 16.0.4, SVG Export Plug-In . SVG Version: 6.00 Build 0)  -->
<!DOCTYPE svg PUBLIC "-//W3C//DTD SVG 1.1//EN" "http://www.w3.org/Graphics/SVG/1.1/DTD/svg11.dtd">
<svg version="1.1" id="Layer_1" xmlns="http://www.w3.org/2000/svg" xmlns:xlink="http://www.w3.org/1999/xlink" x="0px" y="0px"
	 width="960px" height="70px" viewBox="0 0 960 70" enable-background="new 0 0 960 70" xml:space="preserve">
<g>
	<g>
		<g>
			<path fill-rule="evenodd" clip-rule="evenodd" fill="#FFFFFF" d="M39.22,32.769h4.528l0.192,1.479
				c0.333-1.144,2.668-2.001,4.051-2.001c3.194,0,4.528,1.953,4.528,5.434v7.531h-5.007V38.49c0-1.336-0.284-2.336-1.62-2.336
				c-1.237,0-1.906,1.334-1.906,2.288v6.769H39.22V32.769L39.22,32.769z"/>
			<path fill-rule="evenodd" clip-rule="evenodd" fill="#FFFFFF" d="M18.342,27.622H10v17.637h5.529v-5.243h2.812
				c5.243,0,7.294-2.622,7.294-6.389C25.636,30.101,23.395,27.622,18.342,27.622z M17.771,35.677h-2.241V31.96h2.241
				c1.239,0,2.764,0.332,2.764,1.905C20.534,35.39,19.104,35.677,17.771,35.677z"/>
			<path fill-rule="evenodd" clip-rule="evenodd" fill="#FFFFFF" d="M94.515,32.769h4.575l0.144,1.479
				c0.382-1.144,2.669-2.001,4.052-2.001c3.193,0,4.528,1.953,4.528,5.434v7.579h-5.005V38.49c0-1.336-0.334-2.336-1.621-2.336
				c-1.191,0-1.859,1.334-1.859,2.288v6.816h-4.813V32.769L94.515,32.769z"/>
			<path fill-rule="evenodd" clip-rule="evenodd" fill="#FFFFFF" d="M71.443,40.779c0,0.476,0.239,1.237,0.525,1.477
				c0.38,0.238,0.81,0.524,1.381,0.524c0.906,0,1.573-0.286,1.573-1.144c0.048-2.051-7.531-0.239-7.531-5.197
				c0-3.432,2.621-4.241,5.434-4.241c2.766,0,6.626,0.523,6.484,4.29h-4.195c0-0.334-0.191-0.572-0.383-0.906
				c-0.285-0.334-0.666-0.478-1.286-0.524c-0.857-0.047-1.669,0.095-1.669,0.763c0.049,1.955,7.866,0.619,7.866,5.195
				c0,3.195-2.241,4.673-6.579,4.673c-2.717-0.097-6.149-1.478-6.149-4.909H71.443L71.443,40.779z"/>
			<path fill-rule="evenodd" clip-rule="evenodd" fill="#FFFFFF" d="M122.876,37.585c0-0.286,0-0.668-0.43-1.192
				c-0.189-0.238-0.619-0.811-1.334-0.811c-1.858,0-2.336,1.859-2.336,3.385c0,1.668,0.811,3.146,2.24,3.146
				c1.287,0,1.954-1.193,1.954-2.146h4.339c0.143,2.527-1.62,5.625-6.483,5.625c-3.908,0-6.721-2.717-6.721-6.674
				c0-4.861,3.623-6.672,6.674-6.672c4.195,0,6.53,2.478,6.482,5.339H122.876L122.876,37.585z"/>
			<path fill-rule="evenodd" clip-rule="evenodd" fill="#FFFFFF" d="M38.077,43.447v-5.625c0-2.765-0.573-5.53-5.864-5.53
				c-5.435,0-6.245,2.146-6.245,4.769h4.195c0.143-1.525,0.762-1.718,1.766-1.718c0.522,0,1.523-0.047,1.523,0.858
				c0,2.717-8.15,0.191-8.15,5.674c0,3.336,3.051,3.525,4.624,3.574c1.524,0,2.525-0.429,3.479-1.238l0.525,1.048l4.719-0.048
				v-0.096C38.125,44.543,38.077,44.211,38.077,43.447z M31.069,42.731c-0.954,0-1.383-0.428-1.383-1.239
				c0.049-1.238,2.146-1.191,3.813-1.953C33.644,41.016,32.737,42.731,31.069,42.731z"/>
			<path fill-rule="evenodd" clip-rule="evenodd" fill="#FFFFFF" d="M66.056,43.447v-5.625c0-2.765-0.524-5.53-5.813-5.53
				c-5.482,0-6.245,2.146-6.245,4.769h4.147c0.19-1.525,0.763-1.718,1.812-1.718c0.523,0,1.573-0.047,1.573,0.858
				c-0.049,2.717-8.247,0.191-8.247,5.674c0,3.336,3.002,3.525,4.624,3.574c1.573,0,2.621-0.429,3.574-1.238l0.478,1.048
				l4.671-0.048v-0.096C66.105,44.543,66.056,44.211,66.056,43.447z M59.097,42.731c-1.048,0-1.43-0.428-1.43-1.239
				c0-1.238,2.194-1.191,3.91-1.953C61.672,41.016,60.718,42.731,59.097,42.731z"/>
			<polygon fill-rule="evenodd" clip-rule="evenodd" fill="#FFFFFF" points="113.343,45.259 113.343,32.769 108.719,32.769 
				108.719,45.259 113.343,45.259 			"/>
			<polygon fill-rule="evenodd" clip-rule="evenodd" fill="#FFFFFF" points="108.719,31.196 113.343,31.196 113.343,27.573 
				108.719,27.573 108.719,31.196 			"/>
			<path fill-rule="evenodd" clip-rule="evenodd" fill="#FFFFFF" d="M87.078,32.341c-4.194,0-6.721,2.859-6.721,6.674
				c0,3.813,2.526,6.674,6.721,6.674c4.1,0,6.626-2.86,6.626-6.674C93.704,35.2,91.178,32.341,87.078,32.341z M87.078,42.445
				c-1.717-0.047-2.24-1.954-2.24-3.431c0.047-1.526,0.523-3.479,2.24-3.479c1.622,0,2.097,1.953,2.097,3.479
				C89.175,40.491,88.7,42.445,87.078,42.445z"/>
		</g>
	</g>
	<g>
		<g>
			<g>
				<path fill-rule="evenodd" clip-rule="evenodd" fill="#FFFFFF" d="M927.658,10.621c2.842-1.498,4.925-3.51,4.652-4.493
					c-0.271-0.984-1.494-1.382-2.729-0.889s-3.318,2.506-4.652,4.493C923.595,11.722,924.817,12.119,927.658,10.621L927.658,10.621z
					"/>
				<path fill-rule="evenodd" clip-rule="evenodd" fill="#FFFFFF" d="M931.281,28.286c1.584,0.714,3.718,0.735,5.24,0.104
					c1.626-0.618,2.262-1.47,1.208-1.925c-1.181-0.471-4.741-0.653-7.295-0.336C928.48,26.516,929.274,27.527,931.281,28.286
					L931.281,28.286z"/>
				<path fill-rule="evenodd" clip-rule="evenodd" fill="#FFFFFF" d="M927.531,38.291c1.779,2.186,4.51,4.262,5.902,4.406
					c1.066-0.175,0.498-1.938-0.865-3.538c-1.226-1.458-3.291-2.763-4.825-3.184C926.176,35.463,925.914,36.301,927.531,38.291
					L927.531,38.291z"/>
				<path fill-rule="evenodd" clip-rule="evenodd" fill="#FFFFFF" d="M919.555,31.649c-0.679-0.027-1.541-0.637-1.641-0.374
					c-0.25,0.539,0.865,2.137,2.381,1.634c0.352-0.117,0.924-0.449,1.066-0.608C922.782,31.083,920.628,31.787,919.555,31.649
					L919.555,31.649z M921.29,24.591c-0.98,0.15-1.674,0.649-2.157,1.249c-0.505,0.624-1.303,1.613-0.811,2.516
					c0.052,0.109,0.375,0.562,1.072,0.75c1.609,0.479,3.484,0.224,4.244-1.273c0.137-0.268,0.332-0.649,0.258-1.084
					c-0.167-0.989-0.785-1.408-1.014-1.593C922.543,24.88,921.979,24.502,921.29,24.591L921.29,24.591z M918.024,17.518
					c-1.917,0.271-2.86,1.749-2.032,3.951c0.059,0.14,0.245,0.104,0.293-0.071c0.059-0.221,0.137-0.422,0.178-0.723
					c0.072-0.506,0.364-1.041,0.612-1.353c0.532-0.859,1.416-1.09,1.988-1.737C919.235,17.312,918.383,17.465,918.024,17.518
					L918.024,17.518z M916.549,22.089c0.631-0.195,0.975-0.299,1.715-0.422c1.506-0.25,5.186,0.233,6.281,0.791
					c0.484,0.247,0.948,0.519,1.365,0.859c0.949,0.778,1.99,1.428,1.66,3.46c-0.343,2.113-1.887,3.277-3.226,4.519
					c-1.312,1.216-2.661,2.317-4.737,2.855c-0.9,0.232-2.899-0.157-3.467-1.05c-0.215-0.336-0.415-0.734-0.596-1.062
					c-0.135-0.237-0.178-0.512-0.341-0.712c-0.141-0.174-0.517-0.345-0.71-0.455c-0.832-0.472-1.699-1.028-2.191-1.917
					c-0.318-0.572-0.811-2.373-0.479-3.166c0.397-0.96,1.068-1.507,1.879-2.12c0.311-0.233,0.861-0.581,1.188-0.786
					C915.398,22.562,915.955,22.272,916.549,22.089L916.549,22.089z"/>
				<path fill-rule="evenodd" clip-rule="evenodd" fill="#FFFFFF" d="M902.74,15.62c-3.189,3.151-6.336,8.389-5.391,14.513
					c0.543,3.659,2.465,6.35,4.112,8.354c2.157,2.503,5.591,4.801,8.616,4.267c1.393-0.272,2.471-1.415,2.977-2.35
					c1.951-3.601-2.029-8.392-2.48-10.011c-0.889-2.312-0.773-3.531-0.585-5.795c0.299-3.584,2.769-7.563,3.388-8.577
					c0.672-1.1,1.311-2,1.809-2.834c0.121-0.204,0.43-0.676,0.307-1.168c-0.158-0.617-0.997-0.936-1.705-1.027
					c-1.205-0.151-2.186,0.033-3.032,0.215c-2.236,0.482-3.985,1.332-5.202,2.13C904.666,13.917,903.692,14.68,902.74,15.62
					L902.74,15.62z"/>
			</g>
			<g>
				<path fill="#FFFFFF" d="M948.258,53.712v-0.005c0-0.477,0.385-0.876,0.873-0.876c0.491,0,0.869,0.396,0.869,0.871v0.005
					c0,0.475-0.385,0.876-0.869,0.876C948.638,54.583,948.258,54.186,948.258,53.712 M949.902,53.707v-0.005
					c0-0.427-0.332-0.777-0.771-0.777c-0.438,0-0.773,0.357-0.773,0.782v0.005c0,0.425,0.33,0.775,0.773,0.775
					C949.565,54.487,949.902,54.133,949.902,53.707 M948.804,53.251h0.391c0.181,0,0.324,0.095,0.324,0.27
					c0,0.146-0.095,0.231-0.212,0.267l0.243,0.34h-0.175l-0.221-0.32h-0.211v0.32h-0.14V53.251z M949.18,53.692
					c0.127,0,0.195-0.066,0.195-0.162c0-0.104-0.075-0.154-0.195-0.154h-0.236v0.316H949.18z"/>
				<path fill="#FFFFFF" d="M897.14,52.816c-2.653,0-4.731,2.095-4.731,4.766v0.034c0,2.653,2.07,4.731,4.717,4.731
					c2.644,0,4.715-2.094,4.715-4.766v-0.035C901.84,54.894,899.773,52.816,897.14,52.816 M897.14,61.472
					c-2.114,0-3.772-1.7-3.772-3.872v-0.034c0-2.21,1.606-3.876,3.738-3.876c2.125,0,3.789,1.703,3.789,3.876V57.6
					C900.895,59.807,899.281,61.472,897.14,61.472"/>
				<path fill="#FFFFFF" d="M897.14,52.816c-2.653,0-4.731,2.095-4.731,4.766v0.034c0,2.653,2.07,4.731,4.717,4.731
					c2.644,0,4.715-2.094,4.715-4.766v-0.035C901.84,54.894,899.773,52.816,897.14,52.816z M897.14,61.472
					c-2.114,0-3.772-1.7-3.772-3.872v-0.034c0-2.21,1.606-3.876,3.738-3.876c2.125,0,3.789,1.703,3.789,3.876V57.6
					C900.895,59.807,899.281,61.472,897.14,61.472z"/>
				<path fill="#FFFFFF" d="M892.646,61.309l-0.051-0.062h-6.23v-11.63h-0.941v12.521h8.081l-0.344-0.307
					C892.974,61.663,892.8,61.487,892.646,61.309"/>
				<path fill="#FFFFFF" d="M892.646,61.309l-0.051-0.062h-6.23v-11.63h-0.941v12.521h8.081l-0.344-0.307
					C892.974,61.663,892.8,61.487,892.646,61.309z"/>
				<path fill="#FFFFFF" d="M910.743,54.681c-0.84-1.171-2.187-1.865-3.649-1.865c-2.459,0-4.456,1.943-4.456,4.332v0.034
					c0,2.379,1.997,4.315,4.456,4.315c1.498,0,2.815-0.686,3.649-1.886v0.943c0,2.241-1.286,3.527-3.53,3.527
					c-1.288,0-2.486-0.416-3.562-1.234l-0.142-0.109l-0.54,0.738l0.139,0.104c1.244,0.935,2.588,1.392,4.105,1.392
					c1.338,0,2.499-0.426,3.273-1.2c0.773-0.772,1.182-1.861,1.182-3.149v-7.598h-0.925V54.681z M907.144,60.605
					c-1.954,0-3.545-1.545-3.545-3.44V57.13c0-1.919,1.557-3.424,3.545-3.424c2.014,0,3.651,1.544,3.651,3.441v0.034
					C910.795,59.068,909.157,60.605,907.144,60.605"/>
				<path fill="#FFFFFF" d="M910.743,54.681c-0.84-1.171-2.187-1.865-3.649-1.865c-2.459,0-4.456,1.943-4.456,4.332v0.034
					c0,2.379,1.997,4.315,4.456,4.315c1.498,0,2.815-0.686,3.649-1.886v0.943c0,2.241-1.286,3.527-3.53,3.527
					c-1.288,0-2.486-0.416-3.562-1.234l-0.142-0.109l-0.54,0.738l0.139,0.104c1.244,0.935,2.588,1.392,4.105,1.392
					c1.338,0,2.499-0.426,3.273-1.2c0.773-0.772,1.182-1.861,1.182-3.149v-7.598h-0.925V54.681z M907.144,60.605
					c-1.954,0-3.545-1.545-3.545-3.44V57.13c0-1.919,1.557-3.424,3.545-3.424c2.014,0,3.651,1.544,3.651,3.441v0.034
					C910.795,59.068,909.157,60.605,907.144,60.605z"/>
				<rect x="913.873" y="53.025" fill="#FFFFFF" width="0.925" height="9.115"/>
				<rect x="913.873" y="53.025" fill="#FFFFFF" width="0.925" height="9.113"/>
				<rect x="913.72" y="49.616" fill="#FFFFFF" width="1.101" height="1.415"/>
				<rect x="913.721" y="49.616" fill="#FFFFFF" width="1.1" height="1.414"/>
				<path fill="#FFFFFF" d="M925.094,52.815c-2.49,0-4.367,2.034-4.367,4.731v0.035c0,2.76,1.901,4.766,4.525,4.766
					c1.886,0,3.065-1.021,3.721-1.877l0.106-0.138l-0.692-0.548l-0.109,0.141c-0.758,0.983-1.855,1.548-3.01,1.548
					c-1.91,0-3.398-1.472-3.568-3.508h7.589v-0.368C929.288,55.296,927.977,52.815,925.094,52.815 M925.06,53.689
					c2.057,0,3.11,1.705,3.256,3.42h-6.616C921.872,55.122,923.275,53.689,925.06,53.689"/>
				<path fill="#FFFFFF" d="M925.094,52.815c-2.49,0-4.367,2.034-4.367,4.731v0.035c0,2.76,1.901,4.766,4.525,4.766
					c1.886,0,3.065-1.021,3.721-1.877l0.106-0.138l-0.692-0.548l-0.109,0.141c-0.758,0.983-1.855,1.548-3.01,1.548
					c-1.91,0-3.398-1.472-3.568-3.508h7.589v-0.368C929.288,55.296,927.977,52.815,925.094,52.815z M925.06,53.689
					c2.057,0,3.11,1.705,3.256,3.42h-6.616C921.872,55.122,923.275,53.689,925.06,53.689z"/>
				<path fill="#FFFFFF" d="M920.492,61.301l-0.077-0.104l-0.122,0.047c-0.332,0.118-0.639,0.178-0.942,0.178
					c-1.081,0-1.651-0.606-1.651-1.755v-5.785h2.733l0.053-0.069c0.128-0.165,0.273-0.33,0.429-0.488l0.295-0.299h-3.51v-3.408
					h-0.91v10.104c0,1.611,0.938,2.574,2.508,2.574c0.512,0,1.007-0.112,1.472-0.329l0.221-0.103l-0.167-0.178
					C920.703,61.559,920.593,61.431,920.492,61.301"/>
				<path fill="#FFFFFF" d="M920.492,61.301l-0.077-0.104l-0.122,0.047c-0.332,0.118-0.639,0.178-0.942,0.178
					c-1.081,0-1.651-0.606-1.651-1.755v-5.785h2.733l0.053-0.069c0.128-0.165,0.273-0.33,0.429-0.488l0.295-0.299h-3.51v-3.408
					h-0.91v10.104c0,1.611,0.938,2.574,2.508,2.574c0.512,0,1.007-0.112,1.472-0.329l0.221-0.103l-0.167-0.178
					C920.703,61.559,920.593,61.431,920.492,61.301z"/>
				<path fill="#FFFFFF" d="M937.996,59.969c-0.922,1.025-1.881,1.505-3.018,1.505c-2.061,0-3.736-1.746-3.736-3.893v-0.034
					c0-2.163,1.626-3.857,3.703-3.857c1.469,0,2.406,0.821,2.984,1.439l0.123,0.133l0.653-0.649l-0.12-0.125
					c-0.795-0.826-1.847-1.672-3.623-1.672c-2.572,0-4.664,2.13-4.664,4.75v0.032c0,2.621,2.084,4.75,4.646,4.75
					c1.479,0,2.66-0.572,3.715-1.801l0.116-0.132l-0.664-0.579L937.996,59.969z"/>
				<path fill="#FFFFFF" d="M937.996,59.969c-0.922,1.025-1.881,1.505-3.018,1.505c-2.061,0-3.736-1.746-3.736-3.893v-0.034
					c0-2.163,1.626-3.857,3.703-3.857c1.469,0,2.406,0.821,2.984,1.439l0.123,0.133l0.653-0.649l-0.12-0.125
					c-0.795-0.826-1.847-1.672-3.623-1.672c-2.572,0-4.664,2.13-4.664,4.75v0.032c0,2.621,2.084,4.75,4.646,4.75
					c1.479,0,2.66-0.572,3.715-1.801l0.116-0.132l-0.664-0.579L937.996,59.969z"/>
				<path fill="#FFFFFF" d="M944.138,52.815c-1.816,0-2.779,1.075-3.199,1.732v-4.931h-0.908v12.523h0.908v-5.115
					c0-1.87,1.376-3.336,3.129-3.336c1.849,0,2.954,1.209,2.954,3.23v5.221h0.91v-5.307
					C947.932,54.355,946.477,52.815,944.138,52.815"/>
				<path fill="#FFFFFF" d="M944.138,52.815c-1.816,0-2.779,1.075-3.199,1.732v-4.931h-0.908v12.523h0.908v-5.115
					c0-1.87,1.376-3.336,3.129-3.336c1.849,0,2.954,1.209,2.954,3.23v5.221h0.91v-5.307
					C947.932,54.355,946.477,52.815,944.138,52.815z"/>
			</g>
		</g>
	</g>
	<g>
		<path fill="#FFFFFF" d="M177.483,42.699c0,0,24.043,4.2,54.532,4.146c0,0,14.598,0,40.203-1.92c0,0,26.574-2.394,36.634-1.906
			c0,0,10.544,0.146,13.799,1.492c0,0-4.241-2.65-24.189-2.605c0,0-10.381-0.12-34.041,1.739c0,0-17.338,1.552-35.661,1.852
			C228.76,45.497,203.14,45.953,177.483,42.699"/>
		<path fill="#FFFFFF" d="M188.608,29.961c-0.563-0.487-1.283-0.811-2.033-0.811c-0.562,0-1.313,0.341-1.313,1.021
			c0,0.712,0.828,0.986,1.358,1.164l0.783,0.243c1.643,0.503,2.908,1.359,2.908,3.333c0,1.214-0.281,2.46-1.219,3.286
			c-0.923,0.809-2.159,1.148-3.347,1.148c-1.485,0-2.939-0.518-4.144-1.393l1.313-2.557c0.767,0.696,1.674,1.263,2.721,1.263
			c0.72,0,1.485-0.372,1.485-1.229c0-0.891-1.203-1.197-1.86-1.393c-1.925-0.565-3.19-1.083-3.19-3.446
			c0-2.476,1.704-4.095,4.065-4.095c1.188,0,2.644,0.391,3.689,1.004"/>
		<polygon fill="#FFFFFF" points="197.179,36.337 200.854,36.337 200.854,39.021 194.114,39.021 194.114,26.821 197.179,26.821 		
			"/>
		<polyline fill="#FFFFFF" points="207.265,29.507 207.265,31.547 210.72,31.547 210.72,34.232 207.265,34.232 207.265,36.337 
			210.908,36.337 210.908,39.021 204.2,39.021 204.2,26.821 210.908,26.821 210.908,29.507 		"/>
		<polyline fill="#FFFFFF" points="215.145,26.821 218.209,26.821 223.822,34.281 223.854,34.281 223.854,26.821 226.918,26.821 
			226.918,39.021 223.854,39.021 218.24,31.547 218.209,31.547 218.209,39.021 215.145,39.021 		"/>
		<path fill="#FFFFFF" d="M231.267,26.821h4.349c3.282,0,5.987,2.67,5.987,6.1c0,3.431-2.722,6.101-5.987,6.101h-4.349
			 M234.331,36.337h0.689c1.829,0,3.392-1.036,3.392-3.416c0-2.185-1.391-3.414-3.361-3.414h-0.72V36.337z"/>
		<polyline fill="#FFFFFF" points="248.438,29.507 248.438,31.547 251.894,31.547 251.894,34.232 248.438,34.232 248.438,36.337 
			252.081,36.337 252.081,39.021 245.374,39.021 245.374,26.821 252.081,26.821 252.081,29.507 		"/>
		<path fill="#FFFFFF" d="M266.123,39.021h-3.816l-2.893-4.692h-0.03v4.692h-3.065v-12.2h4.582c2.329,0,4.095,1.147,4.095,3.754
			c0,1.683-0.906,3.14-2.579,3.446 M259.384,32.29h0.296c1.001,0,2.127-0.194,2.127-1.521s-1.126-1.522-2.127-1.522h-0.296V32.29z"
			/>
		<polygon fill="#FFFFFF" points="273.988,39.021 270.925,39.021 270.925,29.507 268.392,29.507 268.392,26.821 276.522,26.821 
			276.522,29.507 273.988,29.507 		"/>
		<path fill="#FFFFFF" d="M292.426,32.694c0,3.948-2.736,6.732-6.521,6.732c-3.782,0-6.519-2.784-6.519-6.732
			c0-3.688,3.127-6.278,6.519-6.278C289.299,26.416,292.426,29.006,292.426,32.694 M282.575,32.711c0,2.104,1.502,3.641,3.329,3.641
			c1.831,0,3.331-1.537,3.331-3.641c0-1.683-1.5-3.22-3.331-3.22C284.077,29.491,282.575,31.028,282.575,32.711z"/>
		<polyline fill="#FFFFFF" points="296.197,26.821 299.263,26.821 304.874,34.281 304.906,34.281 304.906,26.821 307.973,26.821 
			307.973,39.021 304.906,39.021 299.293,31.547 299.263,31.547 299.263,39.021 296.197,39.021 		"/>
		<polyline fill="#FFFFFF" points="315.385,29.507 315.385,31.547 318.842,31.547 318.842,34.232 315.385,34.232 315.385,36.337 
			319.027,36.337 319.027,39.021 312.319,39.021 312.319,26.821 319.027,26.821 319.027,29.507 		"/>
	</g>
	<g>
		<g>
			<path fill="#FFFFFF" d="M646.338,35.1c-0.633-0.237-1.601-0.476-2.395-0.476c-0.905,0-1.622,0.238-1.622,1.07
				c0,1.956,5.044,0.751,5.044,4.782c0,2.729-2.213,3.776-4.703,3.776c-1.15,0-2.299-0.181-3.341-0.495l0.196-2.391
				c0,0,1.643,0.552,3.022,0.552c0.972,0,1.761-0.298,1.761-1.148c0-2.092-5.039-0.746-5.039-4.764c0-2.509,2.117-3.536,4.447-3.536
				c1.383,0,2.51,0.261,3.162,0.493L646.338,35.1 M637.125,35.1c-0.65-0.237-1.602-0.476-2.389-0.476
				c-0.911,0-1.645,0.238-1.645,1.07c0,1.956,5.063,0.751,5.063,4.782c0,2.729-2.233,3.776-4.704,3.776
				c-1.146,0-2.297-0.181-3.385-0.495l0.22-2.391c0,0,1.661,0.552,3.046,0.552c0.93,0,1.739-0.298,1.739-1.148
				c0-2.092-5.062-0.746-5.062-4.764c0-2.509,2.135-3.536,4.444-3.536c1.384,0,2.536,0.261,3.207,0.493L637.125,35.1z
				 M683.695,32.432c2.197,0,3.484,1.186,3.484,3.772v7.792h-2.928v-7.195c0-1.166-0.34-1.938-1.584-1.938
				c-1.246,0-2.332,1.086-2.332,3.045v6.089h-2.867v-7.195c0-1.091-0.352-1.938-1.6-1.938c-1.309,0-2.314,1.205-2.314,3.161v5.973
				h-2.963V32.667c1.937-0.235,2.666,0.556,2.746,1.82c0.711-1.265,1.939-2.056,3.537-2.056c2.035,0,2.846,1.127,3.143,2.192
				C680.514,33.498,681.779,32.432,683.695,32.432z M624.097,32.667c-0.628,3.362-2.252,8.661-3.278,11.329h-3.084l-2.176-7.551
				h-0.039l-2.176,7.551h-3.063c-0.985-2.629-2.767-8.107-3.276-11.329h2.904l1.915,7.787h0.042l2.291-7.787h2.907l2.233,7.729
				h0.038l1.941-7.729H624.097z M605.258,35.1c-0.627-0.237-1.595-0.476-2.388-0.476c-0.911,0-1.603,0.238-1.603,1.07
				c0,1.956,5.021,0.751,5.021,4.782c0,2.729-2.212,3.776-4.707,3.776c-1.145,0-2.293-0.181-3.34-0.495l0.178-2.391
				c0,0,1.662,0.552,3.047,0.552c0.971,0,1.759-0.298,1.759-1.148c0-2.092-5.038-0.746-5.038-4.764c0-2.509,2.111-3.536,4.447-3.536
				c1.379,0,2.49,0.261,3.16,0.493L605.258,35.1z M663.373,44.231c-3.221,0-5.474-1.755-5.474-5.711c0-3.539,2.37-6.089,5.813-6.089
				c3.202,0,5.277,1.8,5.277,5.65C668.99,41.779,666.736,44.231,663.373,44.231z M663.494,34.923c-1.304,0-2.553,0.966-2.553,3.458
				c0,2.152,0.813,3.361,2.517,3.361c1.437,0,2.547-1.166,2.547-3.462C666.005,36.088,665.215,34.923,663.494,34.923z
				 M625.424,43.996h2.906V32.667c-1.367-0.139-2.906,0.239-2.906,2.378V43.996z M627.023,31.245c1.029,0,1.859-0.791,1.859-1.798
				c0-0.99-0.83-1.739-1.859-1.739c-0.944,0-1.793,0.749-1.793,1.739C625.23,30.454,626.079,31.245,627.023,31.245z M654.147,44.195
				c-3.363,0-5.558-1.682-5.558-5.699c0-3.396,1.877-6.025,6.012-6.025c0.887,0,2.015,0.18,2.765,0.472l-0.633,2.375
				c-0.669-0.236-1.324-0.417-2.054-0.417c-2.117,0-2.986,1.385-2.986,3.465c0,2.016,0.79,3.356,2.868,3.356
				c0.968,0,1.641-0.235,2.288-0.495l0.34,2.334C656.616,43.912,655.409,44.195,654.147,44.195z"/>
		</g>
		<path fill="#FFFFFF" d="M581.51,32.851c-0.297-0.273-0.609-0.536-0.912-0.79c-0.133-0.11-0.266-0.222-0.396-0.332
			c-0.67-0.574-1.268-1.066-1.821-1.51c-0.645-0.512-1.282-1.028-1.922-1.541c-0.364-0.297-0.729-0.592-1.098-0.884
			c-1.047-0.843-1.886-1.527-2.646-2.159l-0.092-0.078c-0.519-0.431-1.055-0.878-1.562-1.331c-0.254-0.226-0.502-0.453-0.754-0.682
			c-0.086-0.078-0.171-0.158-0.256-0.235l-0.219-0.198c-0.077-0.072-0.157-0.144-0.234-0.217c-0.039-0.037-0.059-0.055-0.066-0.064
			l-0.002-0.098v-4.388c0.568-0.257,1.242-0.387,2.006-0.387c0.623,0,1.298,0.086,2.017,0.254c1.572,0.369,3.069,1.104,4.333,2.129
			c2.293,1.858,3.695,4.609,3.949,7.746C581.951,29.575,581.845,31.174,581.51,32.851z"/>
		<path fill="#FFFFFF" d="M563.561,38.249c0.349,0.235,0.674,0.458,0.971,0.688l0.008,0.005l0.008,0.006
			c0.665,0.444,1.231,1.141,1.514,1.861c0.225,0.566,0.342,1.188,0.455,1.788c0.027,0.147,0.056,0.294,0.086,0.438
			c0.148,0.739,0.328,1.518,0.748,2.2c0.215,0.354,0.486,0.652,0.801,0.89c0.196,0.146,0.645,0.455,1.102,0.555v7.462
			c-0.798-0.536-1.262-1.604-1.582-2.516c-0.309-0.899-0.539-1.842-0.762-2.756c-0.116-0.483-0.238-0.983-0.371-1.476
			c-0.406-1.49-0.908-2.678-1.582-3.73c-0.357-0.585-0.781-1.127-1.188-1.632c-0.266-0.328-0.492-0.588-0.703-0.812l-0.018-0.017
			c-0.102-0.108-0.201-0.219-0.304-0.323c-1.005-1.05-2.118-2.01-3.193-2.938c-0.226-0.197-0.452-0.391-0.681-0.592
			c-1.186-0.991-2.41-2.074-3.256-3.436c-0.83-1.337-1.172-2.916-0.938-4.333c0.21-1.262,0.857-2.529,1.973-3.877
			c2.008-2.378,4.608-4.262,7.121-6.078c0.47-0.34,0.954-0.69,1.429-1.042c0.269,0.583,0.638,1.105,0.997,1.613l0.121,0.174
			l0.307,0.444c0.268,0.39,0.545,0.79,0.811,1.188c0.377,0.566,0.756,1.169,1.128,1.788c0.116,0.192,0.229,0.41,0.358,0.678
			l0.018,0.039c0.105,0.216,0.229,0.472,0.281,0.71c-0.621,0.149-1.097,0.395-1.479,0.763c-0.54,0.516-0.824,1.198-1.07,1.854
			c-0.033,0.088-0.062,0.176-0.097,0.267c-0.227,0.613-0.458,1.246-0.851,1.754c-0.234,0.304-0.573,0.568-1.041,0.804
			c-0.354,0.179-0.723,0.32-1.118,0.467c-0.555,0.21-1.13,0.425-1.649,0.765c-0.971,0.638-1.444,1.793-1.23,3.013
			C560.957,36.477,562.34,37.417,563.561,38.249z"/>
		<g>
			<defs>
				<path id="SVGID_1_" d="M567.391,51.714c0.229,0.645,0.496,1.323,0.879,1.9c-2.403-1.177-4.171-2.548-5.375-4.17
					c-0.692-0.937-1.521-2.395-1.519-4.038c0-1.273,0.479-2.553,1.47-3.91c0.824,0.873,1.516,1.781,2.066,2.698
					c0.604,1.013,1.055,2.141,1.422,3.552c0.104,0.4,0.201,0.812,0.295,1.213C566.842,49.87,567.064,50.812,567.391,51.714z
					 M588.039,42.316l-0.002-0.011l-0.012-0.044l-0.024-0.1l-0.028-0.107c-0.604-2.245-1.842-4.197-3.385-5.904
					c-0.787-0.873-1.742-1.699-2.369-2.489v0.006L582,33.584c-0.379-0.345-0.828-0.682-1.215-1.016
					c-0.254-0.216-0.541-0.431-0.796-0.641c-0.198-0.169-0.414-0.335-0.612-0.497c-0.447-0.368-0.906-0.735-1.359-1.1
					c-0.672-0.541-1.349-1.08-2.021-1.618c-1.067-0.855-2.133-1.712-3.182-2.587c-0.139-0.116-0.279-0.232-0.419-0.354
					c-0.306-0.255-0.615-0.515-0.919-0.782c-1.766-1.514-3.486-3.117-4.976-4.896l-0.104-0.126l-0.074-0.089
					c0.062,0.103,0.13,0.202,0.195,0.302l0.025,0.035c0.375,0.544,0.751,1.086,1.118,1.635l0.093,0.142l0.108,0.162
					c0.206,0.304,0.407,0.613,0.601,0.925c0.295,0.483,0.615,0.988,0.828,1.527c0.122,0.268,0.298,0.834,0.293,0.834
					c0.013,0.103,0.092,0.208,0.092,0.312c0,1.278,0,2.56,0,3.839c0,3.954,0,7.906,0,11.861c0,1.659,0,3.321,0,4.981
					c0,0.47,0,0.938,0,1.409c0,2.252,0,4.503,0,6.757c0,1.552,0,3.103,0,4.655c2.509-0.223,5.533-0.922,8.132-1.994
					c3.073-1.27,5.985-3.109,8.034-5.775C587.805,48.928,588.782,45.504,588.039,42.316z M565.659,18.269l0.025,0.05
					c0.063,0.136,0.143,0.285,0.229,0.444c0.183,0.326,0.352,0.619,0.562,0.862l0.019-0.008c0.068,0.134,0.188,0.262,0.312,0.397
					l0.132,0.144c0.401,0.455,0.833,0.928,1.286,1.398c0.189,0.203,0.387,0.401,0.58,0.589l0.119,0.116
					c0.025,0.025,0.012,0.108,0.119,0.213l0.006,0.102v-2.567v-1.665v-0.39v-0.956v-2.977c0-0.011-0.069-0.017-0.163-0.017
					c-0.461,0-0.913,0.13-1.25,0.227c-0.671,0.19-1.198,0.478-1.618,0.851c-1.107,0.982-0.683,2.406-0.457,2.972
					C565.592,18.131,565.629,18.2,565.659,18.269z"/>
			</defs>
			<clipPath id="SVGID_2_">
				<use xlink:href="#SVGID_1_"  overflow="visible"/>
			</clipPath>
			<g clip-path="url(#SVGID_2_)">
				<polyline fill="#FFFFFF" points="545.219,11.269 588.49,11.269 588.49,10.641 545.219,10.641 				"/>
				<polyline fill="#FFFFFF" points="545.219,12.523 588.49,12.523 588.49,11.896 545.219,11.896 				"/>
				<polyline fill="#FFFFFF" points="545.219,13.777 588.49,13.777 588.49,13.15 545.219,13.15 				"/>
				<polyline fill="#FFFFFF" points="545.219,15.031 588.49,15.031 588.49,14.404 545.219,14.404 				"/>
				<polyline fill="#FFFFFF" points="545.219,16.285 588.49,16.285 588.49,15.659 545.219,15.659 				"/>
				<polyline fill="#FFFFFF" points="545.219,17.54 588.49,17.54 588.49,16.912 545.219,16.912 				"/>
				<polyline fill="#FFFFFF" points="545.219,18.794 588.49,18.794 588.49,18.167 545.219,18.167 				"/>
				<polyline fill="#FFFFFF" points="545.219,20.048 588.49,20.048 588.49,19.421 545.219,19.421 				"/>
				<polyline fill="#FFFFFF" points="545.219,21.303 588.49,21.303 588.49,20.675 545.219,20.675 				"/>
				<polyline fill="#FFFFFF" points="549.608,22.557 592.881,22.557 592.881,21.93 549.608,21.93 				"/>
				<polyline fill="#FFFFFF" points="549.608,23.812 592.881,23.812 592.881,23.185 549.608,23.185 				"/>
				<polyline fill="#FFFFFF" points="549.608,25.065 592.881,25.065 592.881,24.438 549.608,24.438 				"/>
				<polyline fill="#FFFFFF" points="549.608,26.319 592.881,26.319 592.881,25.693 549.608,25.693 				"/>
				<polyline fill="#FFFFFF" points="549.608,27.574 592.881,27.574 592.881,26.947 549.608,26.947 				"/>
				<polyline fill="#FFFFFF" points="549.608,28.828 592.881,28.828 592.881,28.201 549.608,28.201 				"/>
				<polyline fill="#FFFFFF" points="549.608,30.082 592.881,30.082 592.881,29.455 549.608,29.455 				"/>
				<polyline fill="#FFFFFF" points="549.608,31.337 592.881,31.337 592.881,30.71 549.608,30.71 				"/>
				<polyline fill="#FFFFFF" points="549.608,32.591 592.881,32.591 592.881,31.965 549.608,31.965 				"/>
				<polyline fill="#FFFFFF" points="549.608,33.845 592.881,33.845 592.881,33.218 549.608,33.218 				"/>
				<polyline fill="#FFFFFF" points="549.608,35.1 592.881,35.1 592.881,34.472 549.608,34.472 				"/>
				<polyline fill="#FFFFFF" points="549.608,36.354 592.881,36.354 592.881,35.727 549.608,35.727 				"/>
				<polyline fill="#FFFFFF" points="549.608,37.608 592.881,37.608 592.881,36.981 549.608,36.981 				"/>
				<polyline fill="#FFFFFF" points="549.608,38.862 592.881,38.862 592.881,38.235 549.608,38.235 				"/>
				<polyline fill="#FFFFFF" points="549.608,40.116 592.881,40.116 592.881,39.49 549.608,39.49 				"/>
				<polyline fill="#FFFFFF" points="549.608,41.371 592.881,41.371 592.881,40.744 549.608,40.744 				"/>
				<polyline fill="#FFFFFF" points="549.608,42.625 592.881,42.625 592.881,41.998 549.608,41.998 				"/>
				<polyline fill="#FFFFFF" points="549.608,43.879 592.881,43.879 592.881,43.252 549.608,43.252 				"/>
				<polyline fill="#FFFFFF" points="549.608,45.134 592.881,45.134 592.881,44.506 549.608,44.506 				"/>
				<polyline fill="#FFFFFF" points="549.608,46.388 592.881,46.388 592.881,45.76 549.608,45.76 				"/>
				<polyline fill="#FFFFFF" points="549.608,47.643 592.881,47.643 592.881,47.016 549.608,47.016 				"/>
				<polyline fill="#FFFFFF" points="549.608,48.896 592.881,48.896 592.881,48.27 549.608,48.27 				"/>
				<polyline fill="#FFFFFF" points="549.608,50.15 592.881,50.15 592.881,49.524 549.608,49.524 				"/>
				<polyline fill="#FFFFFF" points="549.608,51.405 592.881,51.405 592.881,50.777 549.608,50.777 				"/>
				<polyline fill="#FFFFFF" points="549.608,52.66 592.881,52.66 592.881,52.032 549.608,52.032 				"/>
				<polyline fill="#FFFFFF" points="549.608,53.914 592.881,53.914 592.881,53.286 549.608,53.286 				"/>
				<polyline fill="#FFFFFF" points="549.608,55.168 592.881,55.168 592.881,54.541 549.608,54.541 				"/>
				<polyline fill="#FFFFFF" points="549.608,56.422 592.881,56.422 592.881,55.795 549.608,55.795 				"/>
				<polyline fill="#FFFFFF" points="549.608,57.676 592.881,57.676 592.881,57.049 549.608,57.049 				"/>
				<polyline fill="#FFFFFF" points="549.608,58.932 592.881,58.932 592.881,58.303 549.608,58.303 				"/>
				<polyline fill="#FFFFFF" points="549.608,60.185 592.881,60.185 592.881,59.559 549.608,59.559 				"/>
				<polyline fill="#FFFFFF" points="549.608,61.439 592.881,61.439 592.881,60.812 549.608,60.812 				"/>
			</g>
			<g clip-path="url(#SVGID_2_)">
				<path fill="#FFFFFF" d="M594.684,54.345"/>
				<g>
					<path fill="#FF8064" d="M594.684,55.845c1.935,0,1.935-3,0-3S592.749,55.845,594.684,55.845L594.684,55.845z"/>
				</g>
			</g>
		</g>
	</g>
	<g>
		<g>
			<path fill="#FFFFFF" d="M833.535,32.279h-0.559v1.471c0,0.113-0.092,0.205-0.205,0.205s-0.201-0.092-0.201-0.205v-1.471h-0.561
				c-0.104,0-0.19-0.085-0.19-0.188c0-0.106,0.083-0.192,0.19-0.192h1.525c0.102,0,0.191,0.086,0.191,0.192
				C833.727,32.194,833.643,32.279,833.535,32.279z"/>
			<path fill="#FFFFFF" d="M835.879,33.955c-0.102,0-0.188-0.087-0.188-0.189v-0.903c-0.49,0.988-0.49,0.992-0.49,0.992
				c-0.034,0.067-0.089,0.101-0.163,0.101c-0.078,0-0.127-0.033-0.16-0.104l-0.494-0.988v0.9c0,0.104-0.089,0.192-0.193,0.192
				c-0.103,0-0.188-0.089-0.188-0.192V32.06c0-0.104,0.085-0.188,0.188-0.188c0.08,0,0.145,0.052,0.177,0.12l0.671,1.362
				l0.666-1.362c0.033-0.068,0.098-0.12,0.176-0.12c0.105,0,0.193,0.089,0.193,0.192v1.702
				C836.072,33.868,835.984,33.955,835.879,33.955z"/>
		</g>
		<path fill="#FFFFFF" d="M802.588,35.053c-0.035,1.142-0.969,2.057-2.119,2.057c-0.047,0-0.092-0.003-0.139-0.008
			c0.409,0.688,0.65,1.485,0.65,2.342c0,2.525-2.057,4.582-4.581,4.582c-1.407,0-2.663-0.637-3.505-1.636
			c-0.012-0.016-0.027-0.032-0.039-0.046c-0.076-0.096-0.15-0.193-0.221-0.296c-0.019-0.025-0.037-0.052-0.054-0.078
			c-0.065-0.097-0.126-0.198-0.183-0.3c-0.019-0.033-0.037-0.066-0.054-0.102c-0.055-0.098-0.103-0.2-0.147-0.304
			c-0.017-0.04-0.033-0.08-0.049-0.121c-0.041-0.102-0.08-0.204-0.115-0.309c-0.013-0.045-0.023-0.089-0.036-0.134
			c-0.029-0.106-0.061-0.213-0.083-0.32c-0.007-0.039-0.012-0.078-0.019-0.117c-0.049-0.267-0.078-0.541-0.078-0.82
			c0-2.526,2.056-4.583,4.582-4.583c0.173,0,0.347,0.011,0.514,0.031c0.009,0.001,0.017,0.002,0.025,0.002
			c0.51,0.062,0.993,0.208,1.438,0.423c0-0.003,0-0.006-0.002-0.009c0.38,0.182,0.736,0.414,1.057,0.698
			c0.623,0.551,1.574,0.49,2.125-0.131c0.55-0.624,0.491-1.575-0.132-2.126c-0.599-0.527-1.272-0.946-1.988-1.26
			c-0.054-0.023-0.105-0.047-0.159-0.068c-0.113-0.046-0.227-0.092-0.344-0.132c-0.078-0.028-0.156-0.052-0.236-0.078
			c-0.158-0.049-0.316-0.095-0.479-0.135c-0.113-0.028-0.229-0.058-0.347-0.08c-0.094-0.019-0.189-0.033-0.284-0.049
			c-0.106-0.017-0.213-0.031-0.32-0.044c-0.096-0.011-0.191-0.021-0.289-0.029c-0.122-0.009-0.247-0.014-0.372-0.017
			c-0.069-0.002-0.138-0.009-0.207-0.009c-4.188,0-7.596,3.405-7.596,7.595c0,2.266,1.001,4.396,2.747,5.845
			c0.02,0.019,0.045,0.03,0.066,0.046c1.307,1.063,2.971,1.701,4.782,1.701c4.186,0,7.591-3.404,7.591-7.592
			C803.99,37.809,803.471,36.293,802.588,35.053z"/>
		<path fill="#FFFFFF" d="M749.233,42.362c0.798,0,1.416,0.619,1.416,1.415c0,0.385-0.146,0.738-0.413,1.004
			c-1.473,1.476-3.421,2.212-5.339,2.212c-4.159,0-7.552-3.392-7.552-7.552c0-4.159,3.393-7.552,7.552-7.552
			c1.918,0,3.866,0.737,5.339,2.213c0.268,0.265,0.413,0.647,0.413,1.002c0,0.797-0.618,1.417-1.416,1.417
			c-0.383,0-0.737-0.147-1.003-0.414c-0.854-0.854-2.035-1.386-3.333-1.386c-2.597,0-4.72,2.123-4.72,4.72
			c0,2.596,2.123,4.721,4.72,4.721c1.298,0,2.479-0.531,3.333-1.387C748.496,42.509,748.851,42.362,749.233,42.362z"/>
		<path fill="#FFFFFF" d="M753.096,27.642c0-0.768,0.648-1.416,1.416-1.416c0.766,0,1.416,0.648,1.416,1.416v17.937
			c0,0.767-0.65,1.415-1.416,1.415c-0.768,0-1.416-0.648-1.416-1.415V27.642z"/>
		<path fill="#FFFFFF" d="M760.176,27.642c0.912,0,1.649,0.737,1.649,1.651c0,0.915-0.737,1.653-1.649,1.653
			c-0.916,0-1.653-0.738-1.653-1.653C758.522,28.379,759.26,27.642,760.176,27.642z M758.759,33.305
			c0-0.767,0.649-1.415,1.417-1.415c0.764,0,1.414,0.648,1.414,1.415v12.273c0,0.767-0.65,1.415-1.414,1.415
			c-0.768,0-1.417-0.648-1.417-1.415V33.305z"/>
		<path fill="#FFFFFF" d="M774.316,38.498c0-2.096-1.42-3.776-3.514-3.776s-3.516,1.681-3.516,3.776v7.08
			c0,0.767-0.648,1.415-1.416,1.415c-0.767,0-1.416-0.648-1.416-1.415v-7.08c0-3.659,2.689-6.608,6.348-6.608
			c2.094,0,3.721,0.973,4.932,2.507c1.209-1.534,2.807-2.507,4.932-2.507c3.658,0,6.348,2.949,6.348,6.608v7.08
			c0,0.767-0.648,1.415-1.416,1.415s-1.416-0.648-1.416-1.415v-7.08c0-2.096-1.422-3.776-3.516-3.776
			c-2.095,0-3.518,1.681-3.518,3.776v7.08c0,0.767-0.648,1.415-1.414,1.415c-0.768,0-1.418-0.648-1.418-1.415V38.498z"/>
		<path fill="#FFFFFF" d="M812.98,44.098c0.768,0,1.416,0.65,1.416,1.418c0,0.766-0.648,1.415-1.416,1.415h-1.415
			c-3.128,0-5.664-2.538-5.664-5.663V29.467c0-0.768,0.648-1.417,1.415-1.417c0.766,0,1.416,0.649,1.416,1.417v2.359h4.248
			c0.768,0,1.416,0.649,1.416,1.417c0,0.767-0.648,1.416-1.416,1.416h-4.248v6.608c0,1.562,1.269,2.83,2.833,2.83H812.98z"/>
		<path fill="#FFFFFF" d="M822.634,31.891c-4.159,0-7.55,3.393-7.55,7.551c0,0.244,0.01,0.486,0.037,0.723
			c0.365,3.823,3.599,6.831,7.513,6.831c1.918,0,4.286-0.737,5.761-2.214c0.266-0.266,0.414-0.619,0.414-1.002
			c0-0.797-0.621-1.416-1.418-1.416c-0.384,0-0.737,0.147-1,0.414c-0.857,0.855-2.457,1.385-3.757,1.385
			c-2.102,0-3.896-1.394-4.501-3.303h7.934h2.703c0.77,0,1.418-0.65,1.418-1.418C830.188,35.283,826.794,31.891,822.634,31.891z
			 M818.123,38.027c0.617-1.889,2.387-3.305,4.511-3.305c2.096,0,3.895,1.416,4.485,3.305H818.123z"/>
	</g>
	<g>
		<polygon fill="#FFFFFF" points="414.305,31.625 411.785,38.688 409.209,31.625 406.039,31.625 409.958,41.953 413.452,41.953 
			417.402,31.625 414.305,31.625 		"/>
		<path fill="#FFFFFF" d="M433.527,36.808c0-1.544,1.289-2.791,2.886-2.791c1.596,0,2.884,1.247,2.884,2.791
			c0,1.538-1.288,2.778-2.884,2.778C434.816,39.586,433.527,38.346,433.527,36.808L433.527,36.808z M439.179,27.424v5.07
			c-0.006,0-0.006-0.009-0.017-0.009c-0.878-0.63-1.952-1.017-3.117-1.017c-2.945,0-5.336,2.367-5.336,5.311
			c0,2.945,2.391,5.331,5.336,5.331c1.184,0,2.256-0.38,3.134-1.003v0.852h2.75V27.424H439.179L439.179,27.424z"/>
		<path fill="#FFFFFF" d="M446.595,36.808c0-1.544,1.287-2.791,2.879-2.791c1.597,0,2.889,1.247,2.889,2.791
			c0,1.538-1.292,2.778-2.889,2.778C447.882,39.586,446.595,38.346,446.595,36.808L446.595,36.808z M452.244,31.638v0.856
			l-0.013-0.009c-0.878-0.63-1.955-1.017-3.116-1.017c-2.952,0-5.347,2.383-5.347,5.311c0,2.945,2.395,5.331,5.347,5.331
			c1.166,0,2.25-0.38,3.129-1.003v0.852h2.746V31.638H452.244L452.244,31.638z"/>
		<path fill="#FFFFFF" d="M462.473,31.638h-1.644c0,0-0.007-0.332-0.007-0.628c0-0.648,0-1.481,1.075-1.481
			c0.278,0,0.553,0.049,0.553,0.049v-2.406c0,0-0.456,0-0.769,0c-2.526,0.098-3.632,0.934-3.632,3.363v1.104h-1.234v2.388h1.234
			v7.928h2.779v-7.928h1.644V31.638L462.473,31.638z"/>
		<path fill="#FFFFFF" d="M479.094,32.537c0.779-0.682,1.926-1.116,3.143-1.116c2.521,0,3.962,1.561,3.973,3.596v1.163v5.773h-2.834
			v-5.518v-0.508c0-1.523-1.098-1.985-1.958-1.985c-0.8,0-2.323,0.423-2.239,2.283v0.683v5.045h-2.839V31.638h2.755V32.537
			L479.094,32.537z"/>
		<path fill="#FFFFFF" d="M490.995,37.603c0.14,1.304,1.255,2.239,2.639,2.239c1.079,0,1.798-0.413,2.224-1.163h2.97
			c-0.471,1.612-2.347,3.432-5.105,3.432c-3.315,0-5.656-2.395-5.656-5.338c0-2.94,2.511-5.329,5.656-5.329
			c3.159,0,5.396,2.591,5.396,5.329c0,0.579-0.068,0.83-0.068,0.83H490.995L490.995,37.603z M496.121,35.609
			c-0.238-1.161-1.256-1.839-2.487-1.839c-1.279,0-2.271,0.704-2.569,1.839H496.121L496.121,35.609z"/>
		<path fill="#FFFFFF" d="M425.51,31.782c-1.021,0.225-1.775,1.087-1.775,2.144c0,0.017,0.005,0.044,0.005,0.066
			c1.594,0.327,2.408,1.377,2.408,2.758c0,1.539-1.312,2.793-2.912,2.793c-1.604,0-3.1-1.287-3.1-3.202
			c0-2.348,2.072-4.535,5.031-4.604c0.051,0,0.138,0,0.225,0c-0.647-0.232-1.358-0.361-2.093-0.361
			c-3.188,0-5.753,2.395-5.753,5.374c0,2.966,2.565,5.36,5.753,5.36c3.166,0,5.741-2.395,5.741-5.36
			C429.04,34.515,427.585,32.601,425.51,31.782L425.51,31.782z"/>
		<path fill="#FFFFFF" d="M468.838,31.421c-3.171,0-5.747,2.397-5.747,5.374c0,2.221,1.458,4.143,3.533,4.947
			c1.017-0.218,1.778-1.084,1.778-2.129c0-0.027-0.012-0.051-0.012-0.07c-1.611-0.327-2.418-1.379-2.418-2.748
			c0-1.548,1.319-2.803,2.923-2.803c1.607,0,3.104,1.282,3.104,3.205c0,2.334-2.077,4.526-5.032,4.596c-0.061,0-0.143,0-0.229,0
			c0.651,0.237,1.357,0.365,2.1,0.365c3.168,0,5.751-2.396,5.751-5.363C474.589,33.818,472.006,31.421,468.838,31.421
			L468.838,31.421z"/>
		<path fill="#FFFFFF" d="M390.865,25.411c-2.312,0.479-4.046,2.462-4.046,4.82c0,0.064,0.014,0.111,0.02,0.175
			c3.634,0.737,5.467,3.109,5.467,6.229c0,3.513-2.969,6.353-6.601,6.353s-7.025-2.922-7.025-7.259
			c0-5.302,4.699-10.271,11.404-10.433c0.121,0,0.306,0,0.507,0.007c-1.479-0.543-3.073-0.847-4.763-0.847
			c-7.187,0-13.01,5.457-13.01,12.179c0,6.714,5.823,12.167,13.01,12.167c7.198,0,13.034-5.453,13.034-12.167
			C398.862,31.58,395.556,27.248,390.865,25.411L390.865,25.411z"/>
		<polygon fill="#FFFFFF" points="500.41,31.625 499.982,31.625 499.982,28.545 499.116,28.545 499.116,28.17 501.279,28.17 
			501.279,28.545 500.41,28.545 500.41,31.625 		"/>
		<polygon fill="#FFFFFF" points="501.607,28.17 502.325,28.17 503.02,30.909 503.028,30.909 503.719,28.17 504.438,28.17 
			504.438,31.625 504.01,31.625 504.01,28.606 503.996,28.606 503.234,31.625 502.808,31.625 502.043,28.606 502.032,28.606 
			502.032,31.625 501.607,31.625 501.607,28.17 		"/>
	</g>
</g>
</svg>
