<?xml version="1.0" encoding="utf-8"?>
<!-- Generator: Adobe Illustrator 16.0.4, SVG Export Plug-In . SVG Version: 6.00 Build 0)  -->
<!DOCTYPE svg PUBLIC "-//W3C//DTD SVG 1.1//EN" "http://www.w3.org/Graphics/SVG/1.1/DTD/svg11.dtd">
<svg version="1.1" id="Layer_1" xmlns="http://www.w3.org/2000/svg" xmlns:xlink="http://www.w3.org/1999/xlink" x="0px" y="0px"
	 width="15px" height="14px" viewBox="0 0 15 14" enable-background="new 0 0 15 14" xml:space="preserve">
<path fill="#FF8063" d="M14.613,2.886c-0.516,0.222-1.07,0.37-1.65,0.438c0.594-0.343,1.046-0.888,1.262-1.535
	c-0.553,0.319-1.17,0.55-1.822,0.674c-0.524-0.539-1.271-0.877-2.098-0.877c-1.854,0-3.219,1.672-2.797,3.411
	C5.119,4.879,3.004,3.773,1.586,2.092c-0.754,1.247-0.391,2.881,0.888,3.71C2.004,5.786,1.56,5.661,1.173,5.453
	C1.142,6.74,2.096,7.943,3.478,8.211C3.073,8.318,2.631,8.342,2.18,8.258c0.365,1.104,1.426,1.908,2.684,1.93
	c-1.209,0.916-2.728,1.323-4.252,1.15c1.272,0.788,2.782,1.246,4.403,1.246c5.334,0,8.346-4.354,8.167-8.261
	C13.738,3.933,14.229,3.442,14.613,2.886z"/>
</svg>
