<?xml version="1.0" encoding="utf-8"?>
<!-- Generator: Adobe Illustrator 16.0.4, SVG Export Plug-In . SVG Version: 6.00 Build 0)  -->
<!DOCTYPE svg PUBLIC "-//W3C//DTD SVG 1.1//EN" "http://www.w3.org/Graphics/SVG/1.1/DTD/svg11.dtd">
<svg version="1.1" id="Layer_1" xmlns="http://www.w3.org/2000/svg" xmlns:xlink="http://www.w3.org/1999/xlink" x="0px" y="0px"
	 width="38px" height="38px" viewBox="0 0 38 38" enable-background="new 0 0 38 38" xml:space="preserve">
<g>
	<g>
		<path fill="#FF8065" d="M28.539,14.158c-0.662,0.28-1.375,0.471-2.123,0.556c0.766-0.437,1.348-1.129,1.625-1.954
			c-0.713,0.406-1.506,0.699-2.346,0.858C25.021,12.93,24.061,12.5,23,12.5c-2.387,0-4.138,2.128-3.595,4.341
			c-3.072-0.148-5.79-1.556-7.612-3.695c-0.972,1.587-0.501,3.667,1.139,4.721c-0.603-0.021-1.173-0.179-1.67-0.443
			c-0.042,1.638,1.185,3.169,2.962,3.508c-0.52,0.134-1.09,0.167-1.668,0.059c0.47,1.407,1.833,2.43,3.449,2.457
			c-1.554,1.165-3.506,1.685-5.466,1.463c1.635,1.004,3.576,1.589,5.66,1.589c6.855,0,10.732-5.542,10.496-10.514
			C27.416,15.489,28.045,14.865,28.539,14.158z"/>
	</g>
</g>
</svg>
